<svg viewBox="0 0 340 340" xmlns="http://www.w3.org/2000/svg" shape-rendering="crispEdges" width="340mm" height="340mm"><rect x="0" y="0" width="340" height="340" fill="white"></rect><rect x="20" y="20" width="300" height="300" fill="black"></rect><rect width="75" height="50" x="70" y="120" fill="white"></rect><rect width="50" height="75" x="70" y="120" fill="white"></rect><rect width="75" height="50" x="120" y="120" fill="white"></rect><rect width="75" height="50" x="170" y="120" fill="white"></rect><rect width="50" height="50" x="220" y="120" fill="white"></rect><rect width="50" height="75" x="220" y="120" fill="white"></rect><rect width="50" height="50" x="70" y="170" fill="white"></rect><rect width="50" height="75" x="70" y="170" fill="white"></rect><rect width="50" height="50" x="220" y="170" fill="white"></rect><rect width="50" height="50" x="70" y="220" fill="white"></rect><rect width="50" height="50" x="170" y="220" fill="white"></rect><text x="170" y="336" font-size="5" font-family="Arial, sans-serif" font-weight="bold" fill="black" text-anchor="middle">4x4_1000 ID: 1 Size: 300mm</text><g stroke="black" stroke-width="1.2" fill="none" stroke-linecap="square"><line x1="6.2" y1="335" x2="13" y2="335" stroke="red"></line><line x1="5" y1="333.8" x2="5" y2="327" stroke="green"></line><circle cx="5" cy="335" r="1.2" stroke="blue"></circle><polygon points="14.2,335 13,334.4 13,335.6" stroke="red"></polygon><polygon points="5,325.8 4.4,327 5.6,327" stroke="green"></polygon></g></svg>