<?xml version='1.0' encoding='utf-8'?>
<COLLADA xmlns="http://www.collada.org/2005/11/COLLADASchema" version="1.4.1"><asset><created>2026-09-16T00:00:00Z</created><modified>2026-09-16T00:00:00Z</modified><unit name="meter" meter="1" /><up_axis>Z_UP</up_axis></asset><library_effects><effect id="mesh0-material0-effect"><profile_COMMON><technique sid="common"><lambert><diffuse><color>0.0 0.0 0.0 1.0</color></diffuse></lambert></technique></profile_COMMON></effect></library_effects><library_materials><material id="mesh0-material0" name="mesh0-material0"><instance_effect url="#mesh0-material0-effect" /></material></library_materials><library_geometries><geometry id="mesh0" name="mesh0"><mesh><source id="mesh0-positions"><float_array id="mesh0-array" count="708">0.0814773 -0.0087161 0.0014021 0.0819419 0 0.0014021 0.0814773 0.0087161 0.0014021 0.080089 0.0173334 0.0014021 0.0777925 0.0257543 0.0014021 0.0746139 0.0338834 0.0014021 0.0705893 0.0416286 0.0014021 0.0657642 0.0489021 0.0014021 0.0601934 0.0556216 0.0014021 0.0539398 0.0617108 0.0014021 0.0470745 0.0671008 0.0014021 0.0396751 0.0717306 0.0014021 0.0318255 0.0755476 0.0014021 0.0236146 0.0785086 0.0014021 0.0151356 0.0805801 0.0014021 0.0064844 0.0817386 0.0014021 -0.002241 0.0819709 0.0014021 -0.0109416 0.0812745 0.0014021 -0.0195189 0.0796572 0.0014021 -0.0278757 0.0771374 0.0014021 -0.0359173 0.0737436 0.0014021 -0.0435526 0.0695142 0.0014021 -0.0506951 0.0644972 0.0014021 -0.0572639 0.0587495 0.0014021 -0.0631845 0.052336 0.0014021 -0.0683898 0.0453296 0.0014021 -0.072821 0.0378096 0.0014021 -0.0764277 0.0298612 0.0014021 -0.0791691 0.0215744 0.0014021 -0.0810141 0.0130432 0.0014021 -0.0819419 0.0043642 0.0014021 -0.0819419 -0.0043642 0.0014021 -0.0810141 -0.0130432 0.0014021 -0.0791691 -0.0215744 0.0014021 -0.0764277 -0.0298612 0.0014021 -0.072821 -0.0378096 0.0014021 -0.0683898 -0.0453296 0.0014021 -0.0631845 -0.052336 0.0014021 -0.0572639 -0.0587494 0.0014021 -0.0506951 -0.0644972 0.0014021 -0.0435526 -0.0695142 0.0014021 -0.0359173 -0.0737436 0.0014021 -0.0278757 -0.0771374 0.0014021 -0.0195189 -0.0796572 0.0014021 -0.0109416 -0.0812745 0.0014021 -0.002241 -0.0819709 0.0014021 0.0064844 -0.0817386 0.0014021 0.0151356 -0.0805801 0.0014021 0.0236146 -0.0785086 0.0014021 0.0318255 -0.0755476 0.0014021 0.0396751 -0.0717306 0.0014021 0.0470745 -0.0671008 0.0014021 0.0539398 -0.0617108 0.0014021 0.0601934 -0.0556216 0.0014021 0.0657642 -0.0489021 0.0014021 0.0705893 -0.0416286 0.0014021 0.0746139 -0.0338834 0.0014021 0.0777925 -0.0257543 0.0014021 0.080089 -0.0173334 0.0014021 0.0814773 -0.0087161 -0.0014021 0.0819419 0 -0.0014021 0.0814773 0.0087161 -0.0014021 0.080089 0.0173334 -0.0014021 0.0777925 0.0257543 -0.0014021 0.0746139 0.0338834 -0.0014021 0.0705893 0.0416286 -0.0014021 0.0657642 0.0489021 -0.0014021 0.0601934 0.0556216 -0.0014021 0.0539398 0.0617108 -0.0014021 0.0470745 0.0671008 -0.0014021 0.0396751 0.0717306 -0.0014021 0.0318255 0.0755476 -0.0014021 0.0236146 0.0785086 -0.0014021 0.0151356 0.0805801 -0.0014021 0.0064844 0.0817386 -0.0014021 -0.002241 0.0819709 -0.0014021 -0.0109416 0.0812745 -0.0014021 -0.0195189 0.0796572 -0.0014021 -0.0278757 0.0771374 -0.0014021 -0.0359173 0.0737436 -0.0014021 -0.0435526 0.0695142 -0.0014021 -0.0506951 0.0644972 -0.0014021 -0.0572639 0.0587495 -0.0014021 -0.0631845 0.052336 -0.0014021 -0.0683898 0.0453296 -0.0014021 -0.072821 0.0378096 -0.0014021 -0.0764277 0.0298612 -0.0014021 -0.0791691 0.0215744 -0.0014021 -0.0810141 0.0130432 -0.0014021 -0.0819419 0.0043642 -0.0014021 -0.0819419 -0.0043642 -0.0014021 -0.0810141 -0.0130432 -0.0014021 -0.0791691 -0.0215744 -0.0014021 -0.0764277 -0.0298612 -0.0014021 -0.072821 -0.0378096 -0.0014021 -0.0683898 -0.0453296 -0.0014021 -0.0631845 -0.052336 -0.0014021 -0.0572639 -0.0587494 -0.0014021 -0.0506951 -0.0644972 -0.0014021 -0.0435526 -0.0695142 -0.0014021 -0.0359173 -0.0737436 -0.0014021 -0.0278757 -0.0771374 -0.0014021 -0.0195189 -0.0796572 -0.0014021 -0.0109416 -0.0812745 -0.0014021 -0.002241 -0.0819709 -0.0014021 0.0064844 -0.0817386 -0.0014021 0.0151356 -0.0805801 -0.0014021 0.0236146 -0.0785086 -0.0014021 0.0318255 -0.0755476 -0.0014021 0.0396751 -0.0717306 -0.0014021 0.0470745 -0.0671008 -0.0014021 0.0539398 -0.0617108 -0.0014021 0.0601934 -0.0556216 -0.0014021 0.0657642 -0.0489021 -0.0014021 0.0705893 -0.0416286 -0.0014021 0.0746139 -0.0338834 -0.0014021 0.0777925 -0.0257543 -0.0014021 0.080089 -0.0173334 -0.0014021 0.0803466 -0.0085952 0.0013826 0.0808047 0 0.0013826 0.0803466 0.0085952 0.0013826 0.0789775 0.017093 0.0013826 0.0767129 0.0253971 0.0013826 0.0735784 0.0334135 0.0013826 0.0696096 0.0410513 0.0013826 0.0648514 0.048224 0.0013826 0.0593578 0.0548502 0.0013826 0.053191 0.060855 0.0013826 0.0464208 0.0661703 0.0013826 0.0391241 0.0707358 0.0013826 0.0313833 0.0744999 0.0013826 0.0232863 0.0774199 0.0013826 0.0149249 0.0794626 0.0013826 0.0063936 0.0806051 0.0013826 -0.0022107 0.0808342 0.0013826 -0.0107907 0.0801474 0.0013826 -0.019249 0.0785526 0.0013826 -0.0274899 0.0760677 0.0013826 -0.03542 0.0727209 0.0013826 -0.0429495 0.0685502 0.0013826 -0.0499929 0.0636028 0.0013826 -0.0564706 0.0579347 0.0013826 -0.0623091 0.0516103 0.0013826 -0.0674422 0.044701 0.0013826 -0.0718119 0.0372853 0.0013826 -0.0753686 0.0294471 0.0013826 -0.078072 0.0212752 0.0013826 -0.0798914 0.0128623 0.0013826 -0.0808064 0.0043037 0.0013826 -0.0808064 -0.0043037 0.0013826 -0.0798914 -0.0128623 0.0013826 -0.078072 -0.0212752 0.0013826 -0.0753686 -0.0294471 0.0013826 -0.0718119 -0.0372853 0.0013826 -0.0674422 -0.044701 0.0013826 -0.0623091 -0.0516103 0.0013826 -0.0564706 -0.0579347 0.0013826 -0.0499929 -0.0636028 0.0013826 -0.0429495 -0.0685502 0.0013826 -0.03542 -0.0727209 0.0013826 -0.0274899 -0.0760677 0.0013826 -0.019249 -0.0785526 0.0013826 -0.0107907 -0.0801474 0.0013826 -0.0022107 -0.0808342 0.0013826 0.0063936 -0.0806051 0.0013826 0.0149249 -0.0794626 0.0013826 0.0232863 -0.0774199 0.0013826 0.0313833 -0.0744999 0.0013826 0.0391241 -0.0707358 0.0013826 0.0464208 -0.0661703 0.0013826 0.053191 -0.060855 0.0013826 0.0593578 -0.0548502 0.0013826 0.0648514 -0.048224 0.0013826 0.0696096 -0.0410513 0.0013826 0.0735784 -0.0334135 0.0013826 0.0767129 -0.0253971 0.0013826 0.0789775 -0.017093 0.0013826 0.0803466 -0.0085952 -0.0013826 0.0808047 0 -0.0013826 0.0803466 0.0085952 -0.0013826 0.0789775 0.017093 -0.0013826 0.0767129 0.0253971 -0.0013826 0.0735784 0.0334135 -0.0013826 0.0696096 0.0410513 -0.0013826 0.0648514 0.048224 -0.0013826 0.0593578 0.0548502 -0.0013826 0.053191 0.060855 -0.0013826 0.0464208 0.0661703 -0.0013826 0.0391241 0.0707358 -0.0013826 0.0313833 0.0744999 -0.0013826 0.0232863 0.0774199 -0.0013826 0.0149249 0.0794626 -0.0013826 0.0063936 0.0806051 -0.0013826 -0.0022107 0.0808342 -0.0013826 -0.0107907 0.0801474 -0.0013826 -0.019249 0.0785526 -0.0013826 -0.0274899 0.0760677 -0.0013826 -0.03542 0.0727209 -0.0013826 -0.0429495 0.0685502 -0.0013826 -0.0499929 0.0636028 -0.0013826 -0.0564706 0.0579347 -0.0013826 -0.0623091 0.0516103 -0.0013826 -0.0674422 0.044701 -0.0013826 -0.0718119 0.0372853 -0.0013826 -0.0753686 0.0294471 -0.0013826 -0.078072 0.0212752 -0.0013826 -0.0798914 0.0128623 -0.0013826 -0.0808064 0.0043037 -0.0013826 -0.0808064 -0.0043037 -0.0013826 -0.0798914 -0.0128623 -0.0013826 -0.078072 -0.0212752 -0.0013826 -0.0753686 -0.0294471 -0.0013826 -0.0718119 -0.0372853 -0.0013826 -0.0674422 -0.044701 -0.0013826 -0.0623091 -0.0516103 -0.0013826 -0.0564706 -0.0579347 -0.0013826 -0.0499929 -0.0636028 -0.0013826 -0.0429495 -0.0685502 -0.0013826 -0.03542 -0.0727209 -0.0013826 -0.0274899 -0.0760677 -0.0013826 -0.019249 -0.0785526 -0.0013826 -0.0107907 -0.0801474 -0.0013826 -0.0022107 -0.0808342 -0.0013826 0.0063936 -0.0806051 -0.0013826 0.0149249 -0.0794626 -0.0013826 0.0232863 -0.0774199 -0.0013826 0.0313833 -0.0744999 -0.0013826 0.0391241 -0.0707358 -0.0013826 0.0464208 -0.0661703 -0.0013826 0.053191 -0.060855 -0.0013826 0.0593578 -0.0548502 -0.0013826 0.0648514 -0.048224 -0.0013826 0.0696096 -0.0410513 -0.0013826 0.0735784 -0.0334135 -0.0013826 0.0767129 -0.0253971 -0.0013826 0.0789775 -0.017093 -0.0013826</float_array><technique_common><accessor source="#mesh0-array" count="236" stride="3"><param name="X" type="float" /><param name="Y" type="float" /><param name="Z" type="float" /></accessor></technique_common></source><vertices id="mesh0-vertices"><input semantic="POSITION" source="#mesh0-positions" /></vertices><triangles count="472" material="mesh0-material0"><input semantic="VERTEX" source="#mesh0-vertices" offset="0" /><p>30 29 88 30 88 89 44 43 102 44 102 103 34 33 92 34 92 93 51 50 109 51 109 110 38 37 96 38 96 97 55 54 113 55 113 114 42 41 100 42 100 101 1 0 59 1 59 60 49 48 107 49 107 108 5 4 63 5 63 64 53 52 111 53 111 112 9 8 67 9 67 68 57 56 115 57 115 116 13 12 71 13 71 72 3 2 61 3 61 62 17 16 75 17 75 76 7 6 65 7 65 66 21 20 79 21 79 80 11 10 69 11 69 70 25 24 83 25 83 84 15 14 73 15 73 74 29 28 87 29 87 88 19 18 77 19 77 78 33 32 91 33 91 92 23 22 81 23 81 82 37 36 95 37 95 96 27 26 85 27 85 86 41 40 99 41 99 100 31 30 89 31 89 90 45 44 103 45 103 104 35 34 93 35 93 94 48 47 106 48 106 107 47 46 105 47 105 106 39 38 97 39 97 98 52 51 110 52 110 111 4 3 62 4 62 63 43 42 101 43 101 102 56 55 114 56 114 115 8 7 66 8 66 67 50 49 108 50 108 109 0 58 117 0 117 59 12 11 70 12 70 71 54 53 112 54 112 113 2 1 60 2 60 61 16 15 74 16 74 75 58 57 116 58 116 117 6 5 64 6 64 65 20 19 78 20 78 79 46 45 104 46 104 105 10 9 68 10 68 69 24 23 82 24 82 83 14 13 72 14 72 73 28 27 86 28 86 87 18 17 76 18 76 77 32 31 90 32 90 91 22 21 80 22 80 81 36 35 94 36 94 95 26 25 84 26 84 85 40 39 98 40 98 99 148 207 206 148 206 147 162 221 220 162 220 161 152 211 210 152 210 151 169 228 227 169 227 168 156 215 214 156 214 155 173 232 231 173 231 172 160 219 218 160 218 159 119 178 177 119 177 118 167 226 225 167 225 166 123 182 181 123 181 122 171 230 229 171 229 170 127 186 185 127 185 126 175 234 233 175 233 174 131 190 189 131 189 130 121 180 179 121 179 120 135 194 193 135 193 134 125 184 183 125 183 124 139 198 197 139 197 138 129 188 187 129 187 128 143 202 201 143 201 142 133 192 191 133 191 132 147 206 205 147 205 146 137 196 195 137 195 136 151 210 209 151 209 150 141 200 199 141 199 140 155 214 213 155 213 154 145 204 203 145 203 144 159 218 217 159 217 158 149 208 207 149 207 148 163 222 221 163 221 162 153 212 211 153 211 152 166 225 224 166 224 165 165 224 223 165 223 164 157 216 215 157 215 156 170 229 228 170 228 169 122 181 180 122 180 121 161 220 219 161 219 160 174 233 232 174 232 173 126 185 184 126 184 125 168 227 226 168 226 167 118 177 235 118 235 176 130 189 188 130 188 129 172 231 230 172 230 171 120 179 178 120 178 119 134 193 192 134 192 133 176 235 234 176 234 175 124 183 182 124 182 123 138 197 196 138 196 137 164 223 222 164 222 163 128 187 186 128 186 127 142 201 200 142 200 141 132 191 190 132 190 131 146 205 204 146 204 145 136 195 194 136 194 135 150 209 208 150 208 149 140 199 198 140 198 139 154 213 212 154 212 153 144 203 202 144 202 143 158 217 216 158 216 157 72 190 191 72 191 73 49 167 166 49 166 48 76 194 195 76 195 77 53 171 170 53 170 52 80 198 199 80 199 81 57 175 174 57 174 56 84 202 203 84 203 85 3 121 120 3 120 2 88 206 207 88 207 89 7 125 124 7 124 6 92 210 211 92 211 93 11 129 128 11 128 10 96 214 215 96 215 97 15 133 132 15 132 14 100 218 219 100 219 101 19 137 136 19 136 18 107 225 226 107 226 108 23 141 140 23 140 22 111 229 230 111 230 112 27 145 144 27 144 26 115 233 234 115 234 116 31 149 148 31 148 30 47 165 164 47 164 46 61 179 180 61 180 62 35 153 152 35 152 34 4 122 121 4 121 3 65 183 184 65 184 66 39 157 156 39 156 38 8 126 125 8 125 7 69 187 188 69 188 70 43 161 160 43 160 42 12 130 129 12 129 11 73 191 192 73 192 74 50 168 167 50 167 49 16 134 133 16 133 15 77 195 196 77 196 78 54 172 171 54 171 53 20 138 137 20 137 19 81 199 200 81 200 82 58 176 175 58 175 57 24 142 141 24 141 23 85 203 204 85 204 86 46 164 163 46 163 45 28 146 145 28 145 27 89 207 208 89 208 90 105 223 224 105 224 106 32 150 149 32 149 31 93 211 212 93 212 94 62 180 181 62 181 63 36 154 153 36 153 35 97 215 216 97 216 98 66 184 185 66 185 67 40 158 157 40 157 39 101 219 220 101 220 102 70 188 189 70 189 71 44 162 161 44 161 43 108 226 227 108 227 109 74 192 193 74 193 75 51 169 168 51 168 50 112 230 231 112 231 113 78 196 197 78 197 79 55 173 172 55 172 54 116 234 235 116 235 117 82 200 201 82 201 83 1 119 118 1 118 0 104 222 223 104 223 105 86 204 205 86 205 87 5 123 122 5 122 4 90 208 209 90 209 91 9 127 126 9 126 8 94 212 213 94 213 95 13 131 130 13 130 12 98 216 217 98 217 99 17 135 134 17 134 16 102 220 221 102 221 103 21 139 138 21 138 20 109 227 228 109 228 110 25 143 142 25 142 24 113 231 232 113 232 114 29 147 146 29 146 28 59 177 178 59 178 60 33 151 150 33 150 32 63 181 182 63 182 64 37 155 154 37 154 36 67 185 186 67 186 68 41 159 158 41 158 40 71 189 190 71 190 72 45 163 162 45 162 44 75 193 194 75 194 76 48 166 165 48 165 47 79 197 198 79 198 80 52 170 169 52 169 51 83 201 202 83 202 84 56 174 173 56 173 55 87 205 206 87 206 88 0 118 176 0 176 58 91 209 210 91 210 92 2 120 119 2 119 1 95 213 214 95 214 96 6 124 123 6 123 5 99 217 218 99 218 100 10 128 127 10 127 9 103 221 222 103 222 104 14 132 131 14 131 13 106 224 225 106 225 107 18 136 135 18 135 17 110 228 229 110 229 111 22 140 139 22 139 21 114 232 233 114 233 115 26 144 143 26 143 25 117 235 177 117 177 59 30 148 147 30 147 29 60 178 179 60 179 61 34 152 151 34 151 33 64 182 183 64 183 65 38 156 155 38 155 37 68 186 187 68 187 69 42 160 159 42 159 41</p></triangles></mesh></geometry></library_geometries><library_visual_scenes><visual_scene id="Scene" name="Scene"><node id="mesh0-node" name="mesh0"><instance_geometry url="#mesh0"><bind_material><technique_common><instance_material symbol="mesh0-material0" target="#mesh0-material0" /></technique_common></bind_material></instance_geometry></node></visual_scene></library_visual_scenes><scene><instance_visual_scene url="#Scene" /></scene></COLLADA>