<?xml version='1.0' encoding='utf-8'?>
<COLLADA xmlns="http://www.collada.org/2005/11/COLLADASchema" version="1.4.1"><asset><created>2026-09-16T00:00:00Z</created><modified>2026-09-16T00:00:00Z</modified><unit name="meter" meter="1" /><up_axis>Z_UP</up_axis></asset><library_effects><effect id="mesh0-material0-effect"><profile_COMMON><technique sid="common"><lambert><diffuse><color>0.0003221027727704495 0.0003221027727704495 0.0003221027727704495 1.0</color></diffuse></lambert></technique></profile_COMMON></effect></library_effects><library_materials><material id="mesh0-material0" name="mesh0-material0"><instance_effect url="#mesh0-material0-effect" /></material></library_materials><library_geometries><geometry id="mesh0" name="mesh0"><mesh><source id="mesh0-positions"><float_array id="mesh0-array" count="3888">-0.0309466757386 0.00098120154727 -0.0270000745627 -0.030807534676 -0.000641188165394 -0.0263414932731 -0.0304176898985 -0.00131297793459 -0.0247660113102 -0.0300056251363 -0.000640549583205 -0.0231965664485 -0.0298125910184 0.000982104649511 -0.0225523751257 -0.029951732081 0.00260449436217 -0.0232109564152 -0.0303415766992 0.0032762841315 -0.0247863383783 -0.0307536416206 0.00260385577999 -0.0263558832399 -0.0310513191927 0.000981718217056 -0.0269642078572 -0.0309916534772 -0.000638734783335 -0.0262890999726 -0.0307505624362 -0.00130684300794 -0.0246825810619 -0.030469256854 -0.000631318782599 -0.0230858279156 -0.0303125115299 0.000992306552689 -0.022434078789 -0.0303721772454 0.00261275955308 -0.0231091866737 -0.0306132682864 0.00328086777768 -0.0247157055843 -0.0308945738687 0.00260534355234 -0.0263124587306 -0.031055826671 0.000982714627946 -0.0269684006849 -0.0311325468832 -0.000632046978397 -0.0262814755771 -0.0311478292366 -0.00128945935659 -0.0246526483381 -0.0310926002821 -0.000604415159091 -0.0230362351174 -0.0309993484072 0.00102185961551 -0.0223789848642 -0.0309225281951 0.00263662130148 -0.0230659101313 -0.0309073458416 0.00329403360004 -0.024694737211 -0.0309624747166 0.00260888948221 -0.026311150591 -0.0311944483503 0.000991504242588 -0.0269774799315 -0.0313656791631 -0.000617632623288 -0.026294304313 -0.0315611823334 -0.00126428851272 -0.024672990068 -0.0316663716791 -0.000569672057564 -0.0230631213772 -0.0316197251452 0.00105936560483 -0.0224077969038 -0.0314484941732 0.00266850247084 -0.0230908725224 -0.0312529911621 0.00331515836014 -0.0247122867672 -0.0311478018165 0.00262054190498 -0.0263221554581 -0.031426415113 0.00100841952662 -0.0270107105526 -0.03166316358 -0.000596069511239 -0.0263362306043 -0.0319865010287 -0.00123372719567 -0.0247318127965 -0.0322070214871 -0.000530902579155 -0.0231372604531 -0.0321955843738 0.00110060704582 -0.0224865799124 -0.0319588357475 0.00270509608381 -0.0231609598609 -0.0316354982192 0.00334265376827 -0.0247653776687 -0.0314148779998 0.00263992923123 -0.0263600301712 -0.0317199306726 0.00103168579972 -0.0270713431908 -0.0320021965866 -0.000569239483771 -0.026405990765 -0.0324177694849 -0.00119967061546 -0.024820126091 -0.0327232223785 -0.000490213630811 -0.0232425385097 -0.032739696051 0.00114347376875 -0.0225975135267 -0.0324575299775 0.00274439897274 -0.0232627657933 -0.0320419572385 0.0033748301043 -0.0248487304672 -0.031736404345 0.00266537319928 -0.0264263182078 -0.032051588377 0.00105912170053 -0.0271563151179 -0.0323647688149 -0.000539328200237 -0.0264988134691 -0.0328474729821 -0.00116421278859 -0.0249297419067 -0.0332168559552 -0.000449506711507 -0.0233683525342 -0.0332567405002 0.00118606204595 -0.0227291902756 -0.0329435600624 0.00278451194672 -0.0233866919244 -0.0324608558952 0.00340939653507 -0.0249557634869 -0.0320913729222 0.00269469053762 -0.0265171530187 -0.0324030771865 0.0010884418099 -0.0272598554869 -0.0327357680253 -0.000508323626987 -0.0266080227742 -0.0332667979169 -0.00112924669715 -0.0250530742686 -0.0336852070114 -0.000410479659589 -0.0235060068378 -0.0337458025926 0.00122677260565 -0.0228729116036 -0.033413211674 0.002823637963 -0.0235246441572 -0.0328820817029 0.00344446111283 -0.0250795928221 -0.0324637728471 0.00272579399547 -0.0266267600935 -0.0327598847012 0.00111745768374 -0.0273752873997 -0.0331019810994 -0.000478515242789 -0.0267265397122 -0.0336662302891 -0.00109676476552 -0.0251823383168 -0.034122160825 -0.000375027606341 -0.0236472111463 -0.0342027679212 0.00126390872373 -0.023020484051 -0.0338606716822 0.00285988165013 -0.0236693317384 -0.0332963224927 0.0034781312525 -0.0252135332931 -0.0328403919568 0.00275639409332 -0.0267486604636 -0.0331100987563 0.00114407880738 -0.0274960298174 -0.0334511945986 -0.000451993322417 -0.0268469837228 -0.0340348554635 -0.00106875830271 -0.0253093514216 -0.0345191032349 -0.000344943692646 -0.0237839791666 -0.0346203228803 0.0012955762236 -0.0231643192536 -0.0342791271974 0.0028916484329 -0.0238134655073 -0.0336955663323 0.00350841333356 -0.0253510976493 -0.033211318561 0.0027845987235 -0.0268764699043 -0.0334446076601 0.00116621243602 -0.0276157972409 -0.0337718946055 -0.000430848697694 -0.0269616731315 -0.034359658251 -0.00104731694505 -0.0254256342983 -0.0348637181747 -0.000322218111522 -0.0239072304999 -0.0349886525147 0.00131978292055 -0.0232960328303 -0.0346614655692 0.00291684397463 -0.0239501567805 -0.0340736019237 0.00353331230162 -0.0254861957729 -0.033569542 0.00280821346809 -0.0270045995713 -0.0337586010681 0.00118166239958 -0.027729197322 -0.0340521677605 -0.000416871882262 -0.0270631269002 -0.03462342108 -0.00103412698225 -0.0255210143535 -0.0351376874378 -0.000308536276226 -0.0240063943053 -0.0352938407605 0.00133493989581 -0.0234063469306 -0.035000274068 0.00293347417765 -0.0240724173525 -0.0344290207485 0.00355072927764 -0.0256145298991 -0.0339147543907 0.00282513857161 -0.0271291499474 -0.0339628174859 0.00118589977794 -0.0277999721714 -0.0342368721848 -0.000413118966139 -0.0271266328155 -0.0348317400396 -0.00102989287086 -0.025593382671 -0.0353988384056 -0.000303044235976 -0.0240981785059 -0.0356060227838 0.001341491299 -0.0235170498819 -0.035331968085 0.00294051004307 -0.0241903892377 -0.0347371003894 0.00355728394767 -0.0257237393822 -0.0341700018641 0.00283043531291 -0.0272188435474 -0.0395244011597 0.00117477093677 -0.030112917421 -0.0398577987662 -0.000424095063595 -0.0294663835868 -0.0406185866035 -0.00104020109462 -0.0280079692851 -0.0413611120241 -0.000312792156806 -0.026592085827 -0.0416504559966 0.0013320779524 -0.0260481263989 -0.0413170581512 0.00293084395292 -0.0266945602333 -0.0405562703936 0.00354704998392 -0.028152974535 -0.0398136449731 0.00281964112574 -0.0295688581523 -0.0437258573196 0.00115712519942 -0.0327899293346 -0.0441748751474 -0.00044223287258 -0.0322190114527 -0.045201839605 -0.00105945086751 -0.0309345734435 -0.0462051360803 -0.000333149589004 -0.0296891748826 -0.0465971867571 0.00131123873195 -0.0292123519629 -0.0461482689291 0.00291059672432 -0.0297832696855 -0.0451213044715 0.00352781471924 -0.0310677076947 -0.0441179079964 0.00280151352037 -0.0323131064149 -0.0468482984389 0.00113353870867 -0.035901060287 -0.0474097959789 -0.000466608934174 -0.0354432634066 -0.048694972684 -0.00108583255105 -0.0344184144817 -0.0499509728152 -0.000361332507786 -0.0334271137717 -0.0504421816447 0.00128237685067 -0.0330498330529 -0.0498806841844 0.00288242449342 -0.0335077299332 -0.04859550732 0.00350164811042 -0.0345324788583 -0.0473394072686 0.00277724814676 -0.0355237797275 -0.0491122038995 0.00110533589134 -0.0395580592748 -0.0497574130502 -0.000495778413603 -0.0392335292387 -0.0512340736188 -0.00111735451494 -0.0385134757301 -0.0526771462331 -0.000395103443204 -0.0378197774533 -0.0532413396152 0.0012476477954 -0.0375587806417 -0.0525961306238 0.00284876210022 -0.0378834106778 -0.0511194698959 0.00347033820168 -0.0386033641865 -0.0496763972816 0.00274808712994 -0.0392970624633 -0.0506822148866 0.00107338563952 -0.0439117642742 -0.0513739201787 -0.000528565691804 -0.0437107603415 -0.0529563275583 -0.00115212600278 -0.0432721387694 -0.0545025357595 -0.000431957061327 -0.0428528765788 -0.0551067982977 0.00121006226891 -0.0426984160853 -0.0544150930852 0.0028121136002 -0.042899420018 -0.0528326857056 0.00343567391118 -0.0433380415901 -0.0512864775045 0.00271550496972 -0.0437573037807 -0.0516635170965 0.00103920419153 -0.0490779079096 -0.0523745727842 -0.000563462549266 -0.0489716732777 -0.054000720843 -0.00118835769254 -0.0487475823123 -0.0555894601693 -0.000469522620178 -0.0485368526472 -0.056210150492 0.00117198362801 -0.0484628660913 -0.0554990947247 0.00277455036883 -0.0485691007232 -0.0538729467455 0.00339954551207 -0.0487931916886 -0.0522842075785 0.00268071043958 -0.0490040213536 -0.0521506115925 0.0010046162942 -0.0551189397552 -0.052867468086 -0.000598455066056 -0.0550761959646 -0.0545066419626 -0.00122416058239 -0.054994284433 -0.0561079999404 -0.000506135558857 -0.0549212348443 -0.0567334737903 0.00113506687998 -0.0548998407362 -0.056016717217 0.00273803816064 -0.0549425843675 -0.0543774434202 0.00336384375657 -0.0550244960585 -0.0527760854423 0.00264581873304 -0.0550975456471 -0.052254459038 0.00097173358728 -0.0620717831387 -0.0529721752548 -0.000631538457661 -0.0620666380263 -0.0546132806816 -0.00125764551227 -0.0620675235229 -0.0562164649541 -0.000540021943189 -0.0620739711259 -0.0568425860252 0.00110107998022 -0.0620822760246 -0.0561248697288 0.00270425202519 -0.0620874211369 -0.0544837643816 0.00333045907977 -0.0620865356404 -0.0528805800295 0.00261273551072 -0.0620800880374 -0.0521012152947 0.000942655610146 -0.0699703371834 -0.0528186603389 -0.000660616218852 -0.0699832925258 -0.0544592269246 -0.00128692284443 -0.0700226789291 -0.0560619687722 -0.000569398923067 -0.0700653272826 -0.0566879099907 0.00107160314353 -0.0700863324836 -0.0559704647872 0.00267487497266 -0.0700732771413 -0.0543298982015 0.00330118159823 -0.070033890738 -0.0527272563537 0.00258365759724 -0.0699912422253 -0.0518254423423 0.000919375208133 -0.0788523876292 -0.052542794235 -0.000683896546687 -0.0788696431254 -0.0541831708547 -0.00131020302099 -0.0789153298393 -0.0557857203474 -0.000592678946449 -0.0789627785051 -0.0564116621233 0.00104842311974 -0.0789840837059 -0.0556943103898 0.00265169487443 -0.0789669282095 -0.0540539336108 0.00327800134886 -0.0789211414957 -0.0524513841181 0.00256047727432 -0.0788736928299 -0.0515651101185 0.000904082512788 -0.0887606147948 -0.0522825522959 -0.000699189313928 -0.0887717701396 -0.0539234021582 -0.00132549616508 -0.0888006560784 -0.0555263229826 -0.000607972386248 -0.08883010413 -0.0561524513798 0.00103312953133 -0.0888430090229 -0.0554350092024 0.00263640135804 -0.0888318536781 -0.0537942592603 0.0032626081296 -0.08880296758 -0.0521912384361 0.00254508443039 -0.0887735196877 -0.051460485789 0.000898465826155 -0.0997989954176 -0.052177777161 -0.00070480588047 -0.099778250962 -0.0538182066989 -0.00133101239688 -0.0997315374745 -0.055420808632 -0.000613388364069 -0.0996862859395 -0.056046789011 0.00102761367134 -0.0996690910297 -0.055329497639 0.00263088537797 -0.0996898354853 -0.0536890681011 0.00325709189438 -0.0997365489728 -0.0520864660087 0.00253946786169 -0.099781700508 -0.0515226136836 0.000898416352037 -0.100758297686 -0.0522390722482 -0.000704854691401 -0.100716954531 -0.0538774256606 -0.00133105955453 -0.100622444289 -0.0554779527422 -0.000613433869465 -0.100530195999 -0.0561031031806 0.00102756882685 -0.100494202387 -0.0553867446158 0.00263083979066 -0.100535545383 -0.0537483912035 0.00325704465379 -0.100630055625 -0.0521478641219 0.00253941896872 -0.100722303915 -0.0515701310337 0.00089837851269 -0.101522622977 -0.0522870072949 -0.000704892863371 -0.10155517925 -0.0539263293865 -0.00133109849789 -0.10162936768 -0.055527918936 -0.000613473658892 -0.101701917906 -0.0561535716221 0.00102752863747 -0.101730123576 -0.0554366955202 0.00263080001341 -0.101697667303 -0.0537972732694 0.00325700572768 -0.101623379032 -0.0521956838792 0.00253938088856 -0.101550928806 -0.0515167406649 0.00089842102888 -0.102031008654 -0.0522030987151 -0.000704826044707 -0.102240513756 -0.0537729643494 -0.00133097636918 -0.102718813319 -0.0553066819904 -0.000613297481947 -0.103185772142 -0.0559057798281 0.00102772596076 -0.1033679203 -0.0552194217779 0.00263097303435 -0.103158415197 -0.0536495561435 0.00325712335882 -0.102680115635 -0.0521158385026 0.00253944447159 -0.102213156812 -0.0513041530779 0.000898590318108 -0.1024784478 -0.0518881422441 -0.000704575236377 -0.102895916204 -0.0532242638045 -0.00133053942414 -0.103848988642 -0.0545297193658 -0.00061267876566 -0.104779411595 -0.0550398049782 0.00102841555988 -0.105142301748 -0.0544558159713 0.00263158111424 -0.104724933343 -0.0531196942516 0.00325754530213 -0.103771760906 -0.0518142386902 0.00253968464365 -0.102841337952 -0.0506620442495 0.000899101646681 -0.103101171246 -0.0510971781242 -0.000703945370321 -0.103672376921 -0.0520932590863 -0.00132963877458 -0.104976891371 -0.053066860658 -0.000611513851827 -0.106250343288 -0.0534475590949 0.00102968350821 -0.106746939679 -0.0530123252204 0.00263273060485 -0.106175734164 -0.0520162444175 0.00325842400898 -0.104871319713 -0.0510427426863 0.00254029900672 -0.103597767637 -0.049210050458 0.000900257908488 -0.10392218481 -0.0495097141895 -0.000702681229987 -0.104575006345 -0.0501963915575 -0.00132812824783 -0.106065813804 -0.050867882675 -0.000609762746368 -0.107521247109 -0.0511307940586 0.00103152841068 -0.108088831184 -0.0508311301678 0.00263446754928 -0.10743590965 -0.0501444527998 0.00325991456712 -0.105945102191 -0.0494729616823 0.00254154906566 -0.104489668886 -0.0466871736724 0.000902266943297 -0.104817304014 -0.0468872966493 -0.000700592928191 -0.10550738413 -0.0473465092757 -0.00132585880972 -0.10708325397 -0.0477959326171 -0.000607316469707 -0.108621841057 -0.0479721954216 0.00103404368794 -0.109221763174 -0.0477721722853 0.00263690347992 -0.108531582899 -0.0473129596589 0.00326216936145 -0.10695571306 -0.0468635364767 0.00254362702131 -0.105417225972 -0.0429222378573 0.000905265063202 -0.105676101341 -0.0430528872231 -0.000697539484576 -0.106382792126 -0.0433538598249 -0.00132267935531 -0.107996414035 -0.0436486417027 -0.000604013870128 -0.109571847459 -0.0437647273775 0.00103739420819 -0.110186165436 -0.0436339780118 0.0026401988356 -0.109479474811 -0.0433331054098 0.0032653386267 -0.107865852742 -0.0430383235321 0.00254667314152 -0.106290419318 -0.0377567284334 0.000909378497635 -0.106426729159 -0.0378386893435 -0.000693387278213 -0.107140697497 -0.0380282888785 -0.00131843845957 -0.108771296806 -0.0382144967294 -0.000599686513963 -0.110363103172 -0.0382881926644 0.00104175532044 -0.110983888669 -0.038206231595 0.00264452109642 -0.110269820332 -0.0380165322194 0.00326957235728 -0.108639321182 -0.0378304242091 0.00255082033217 -0.107047414657 -0.031024163643 0.000914739820509 -0.107017952552 -0.0310709298647 -0.00068799792886 -0.107735276946 -0.0311800408351 -0.001312985015 -0.109373104455 -0.0312876602777 -0.000594170487327 -0.110972235994 -0.0313306605616 0.00104729579086 -0.111595770383 -0.0312839943397 0.00265003346059 -0.110878445829 -0.0311748833693 0.00327502054673 -0.10924061832 -0.0310672639267 0.00255620601906 -0.10764148678 -0.022549876553 0.000921488123813 -0.107407849648 -0.0225703447275 -0.000681228683712 -0.108126415928 -0.0226194604118 -0.00130616799399 -0.109767238993 -0.0226684842475 -0.000587306805053 -0.111369163858 -0.0226886863193 0.00105417762796 -0.111993834557 -0.0226682181448 0.00265689443548 -0.111275268277 -0.0226191024605 0.00328183374576 -0.109634445213 -0.0225700786249 0.00256297255683 -0.108032520348 -0.0121254063358 0.000929789410524 -0.107558352407 -0.0121345748468 -0.000672918398774 -0.108277136684 -0.0121577915277 -0.00129783708498 -0.109918600997 -0.0121815161998 -0.000578955749635 -0.111521066156 -0.0121919186058 0.00106253648712 -0.112145952463 -0.0121827499355 0.00266524429654 -0.111427068187 -0.0121595334139 0.00329016298262 -0.109785703873 -0.0121358087418 0.00257128164728 -0.108183238714 0.0189726697412 0.0232945607303 -0.019317897285 0.0189567405096 0.0232945480454 -0.0293195846001 0.0199207594702 0.023646315831 -0.0293211203953 0.0199366887018 0.0236463285159 -0.0193194330802 0.0184602782502 0.0224054524174 -0.0193170800948 0.0184443490186 0.0224054397325 -0.0293187674099 0.0186392828151 0.0213948946431 -0.0193173639055 0.0186233535835 0.0213948819582 -0.0293190512206 0.019425906826 0.0207359208438 -0.01931861589 0.0194099775943 0.020735908159 -0.0293203032051 0.0204522051989 0.0207367381129 -0.0193202504296 0.0204362759673 0.020736725428 -0.0293219377448 0.0212377786956 0.0213969638954 -0.0193215024141 0.021221849464 0.0213969512105 -0.0293231897292 0.0214151735657 0.0224078054802 -0.0193217862249 0.0213992443341 0.0224077927953 -0.02932347354 0.0209013666836 0.0232960966037 -0.0193209690346 0.0208854374519 0.0232960839188 -0.0293226563498 -0.0240343620779 0.0232603130713 -0.0192494019017 -0.0240502913095 0.0232603003864 -0.0292510892168 -0.0230862723489 0.023612068172 -0.029252625012 -0.0230703431173 0.0236120808569 -0.0192509376969 -0.0245467535689 0.0223712047583 -0.0192485847115 -0.0245626828005 0.0223711920735 -0.0292502720266 -0.024367749004 0.021360646984 -0.0192488685223 -0.0243836782356 0.0213606342992 -0.0292505558374 -0.0235811249932 0.0207016731848 -0.0192501205067 -0.0235970542248 0.0207016604999 -0.0292518078218 -0.0225548266202 0.0207024904539 -0.0192517550464 -0.0225707558518 0.020702477769 -0.0292534423615 -0.0217692531235 0.0213627162364 -0.0192530070309 -0.0217851823551 0.0213627035515 -0.029254694346 -0.0215918582534 0.0223735578211 -0.0192532908416 -0.0216077874851 0.0223735451363 -0.0292549781567 -0.0221056651355 0.0232618489446 -0.0192524736514 -0.0221215943672 0.0232618362598 -0.0292541609665 0.0190069174437 -0.0197125256335 -0.019317897285 0.0189909882121 -0.0197125383184 -0.0293195846001 0.0199551071725 -0.0193607704532 -0.0293211205546 0.0199710364041 -0.0193607577683 -0.0193194332394 0.0184945259527 -0.0206016339464 -0.0193170800948 0.0184785967211 -0.0206016466313 -0.0293187674099 0.0186735305176 -0.0216121917207 -0.0193173639055 0.018657601286 -0.0216122044056 -0.0293190512206 0.0194601545284 -0.02227116552 -0.01931861589 0.0194442252968 -0.0222711782048 -0.0293203032051 0.0204864529014 -0.0222703482509 -0.0193202504296 0.0204705236698 -0.0222703609358 -0.0293219377448 0.0212720263981 -0.0216101224684 -0.0193215024141 0.0212560971665 -0.0216101351533 -0.0293231897292 0.0214494212682 -0.0205992808836 -0.0193217862249 0.0214334920365 -0.0205992935685 -0.02932347354 0.0209356143861 -0.0197109897601 -0.0193209690346 0.0209196851544 -0.019711002445 -0.0293226563498 -0.0240001143754 -0.0197467732925 -0.0192494019017 -0.024016043607 -0.0197467859774 -0.0292510892168 -0.0230519246466 -0.0193950181122 -0.0292526251713 -0.023035995415 -0.0193950054273 -0.0192509378562 -0.0245125058664 -0.0206358816055 -0.0192485847115 -0.0245284350981 -0.0206358942904 -0.0292502720266 -0.0243335013015 -0.0216464393798 -0.0192488685223 -0.0243494305332 -0.0216464520647 -0.0292505558374 -0.0235468772907 -0.022305413179 -0.0192501205067 -0.0235628065223 -0.0223054258639 -0.0292518078218 -0.0225205789177 -0.0223045959099 -0.0192517550464 -0.0225365081493 -0.0223046085948 -0.0292534423615 -0.021735005421 -0.0216443701275 -0.0192530070309 -0.0217509346527 -0.0216443828123 -0.029254694346 -0.021557610551 -0.0206335285427 -0.0192532908416 -0.0215735397826 -0.0206335412276 -0.0292549781567 -0.0220714174331 -0.0197452374192 -0.0192524736514 -0.0220873466647 -0.019745250104 -0.0292541609665 0.0139127457867 -0.00264147684578 0.0120954341497 0.0139125863622 -0.00264147697273 0.0119953342767 0.018241488361 -0.000137628958551 0.0119884366562 0.0182416477855 -0.000137628831597 0.0120885365292 0.0139087634365 0.0023594215686 0.0120954341497 0.013908604012 0.00235942144164 0.0119953342767 -0.0196977732428 0.00325906007103 0.011048755213 -0.019830097049 0.00253565446868 0.0110489668765 -0.0198285042373 0.00253565573708 0.0120490656081 -0.0196961804311 0.00325906133943 0.0120488539446 -0.0196903053467 0.00329936603069 0.0110487432681 -0.0196574348209 0.00345289225505 0.0120487919904 -0.0196590276326 0.00345289098665 0.0110486932588 -0.0196067744179 0.00362813265285 0.0120487110836 -0.0196083672296 0.00362813138445 0.011048612352 -0.0195178398766 0.00383580353964 0.0120485691782 -0.0195194326883 0.00383580227124 0.0110484704466 -0.019688712535 0.00329936729909 0.0120488419997 -0.0194584936243 0.00391225082289 0.0110483732948 -0.0193052191486 0.00406067292651 0.0120482302617 -0.0193068119602 0.00406067165811 0.0110481315301 -0.0190493257844 0.00419427674359 0.0120478225425 -0.0190509185961 0.00419427547519 0.0110477238109 -0.0194569008127 0.00391225209129 0.0120484720264 -0.0189825388704 0.00421062993298 0.0120477161533 -0.0189841316821 0.00421062866458 0.0110476174217 -0.0186424756236 0.00426540075179 0.0110470732122 -0.0186408828119 0.00426540202019 0.0120471719438 -0.0181891408261 0.00422116174037 0.0110463512627 -0.0181875480144 0.00422116300877 0.0120464499943 -0.0181571430457 0.00421488721907 0.0120464015776 -0.0181587358574 0.00421488595067 0.011046302846 -0.0179939147163 0.00417911719081 0.0120461416566 -0.017995507528 0.00417911592241 0.011046042925 -0.0177872651938 0.00411668173154 0.0120458126146 -0.0177888580055 0.00411668046315 0.011045713883 -0.0175395788664 0.00400797893632 0.0120454182737 -0.017541171678 0.00400797766792 0.0110453195421 -0.0175095648189 0.0039903028317 0.0120453704941 -0.0175111576306 0.0039903015633 0.0110452717625 -0.0173437691054 0.00387893482394 0.0110450053117 -0.0173421762937 0.00387893609234 0.0120451040433 -0.0171526086299 0.00367718698617 0.011044701115 -0.0171510158182 0.00367718825457 0.0120447998466 -0.0171406921648 0.00365649646901 0.0110446821624 -0.0171390993531 0.00365649773741 0.012044780894 -0.0170772908131 0.00352914691682 0.0110445813475 -0.0170756980014 0.00352914818522 0.0120446800791 -0.0170307358418 0.00333448392807 0.0110445074484 -0.0170291430302 0.00333448519646 0.01204460618 -0.0170231401541 0.00320528993575 0.0120445967833 -0.0170247329658 0.00320528866735 0.0110444980517 -0.0170315783877 0.00301118315462 0.0110445092003 -0.0170633091365 0.00278965781633 0.0120446612858 -0.0170649019482 0.00278965654793 0.0110445625542 -0.017029985576 0.00301118442301 0.0120446079319 -0.0171977235427 0.00205445054544 0.0120448762939 -0.0171993163544 0.00205444927704 0.0110447775623 -0.0166294815734 0.00288010331349 0.0120439702337 -0.0166490842919 0.00276698766745 0.0110439003291 -0.0166474914802 0.00276698893585 0.0120439990607 -0.0166310743851 0.00288010204509 0.0110438715021 -0.0166060603066 0.00310452203562 0.0120439326471 -0.0166076531182 0.00310452076723 0.0110438339155 -0.0166052396409 0.00332972276055 0.0120439310544 -0.0166068324526 0.00332972149215 0.0110438323228 -0.0166079432013 0.00334322061191 0.0110438340747 -0.0166175390828 0.00345461300577 0.0120439504848 -0.0166191318945 0.00345461173737 0.0110438517532 -0.0166445543482 0.0035993915387 0.0120439933271 -0.0166461471599 0.0035993902703 0.0110438945955 -0.0167014918635 0.00377214625261 0.0120440837898 -0.0167030846751 0.00377214498421 0.0110439850582 -0.0166063503896 0.00334322188031 0.0120439328063 -0.0167568670098 0.0038756021887 0.0110440705837 -0.0167552741981 0.0038756034571 0.0120441693153 -0.0168382681737 0.00400273740709 0.0110442000664 -0.016956387773 0.0041440433901 0.0120444892792 -0.0169579805847 0.00414404212171 0.0110443905476 -0.016836675362 0.00400273867549 0.012044298798 -0.0170640564658 0.0042394576809 0.0110445593689 -0.0170624636541 0.0042394589493 0.0120446581005 -0.0172171484379 0.00435513580635 0.0110448030448 -0.0174160476028 0.00447087745433 0.012045220944 -0.0174176404145 0.00447087618593 0.0110451222124 -0.0172155556262 0.00435513707475 0.0120449017764 -0.0175776963018 0.00454124875147 0.0110453770369 -0.0178098689759 0.00462376389233 0.0120458479715 -0.0178114617876 0.00462376262393 0.0110457492398 -0.0180945211619 0.00468963723708 0.0120463012405 -0.0180961139736 0.00468963596868 0.0110462025089 -0.0175761034902 0.00454125001987 0.0120454757685 -0.0181347259558 0.00469570522285 0.0120463652651 -0.0181363187674 0.00469570395445 0.0110462665335 -0.0183327469834 0.00472234754186 0.0120466806104 -0.0183343397951 0.00472234627346 0.0110465818788 -0.018598956197 0.00473423555612 0.0120471045746 -0.0186005490086 0.00473423428773 0.011047005843 -0.0189368309751 0.0047029664875 0.012047642732 -0.0189384237868 0.0047029652191 0.0110475440004 -0.0189961128653 0.00468931927542 0.0110476358965 -0.0192749510452 0.00460299720176 0.0120481813672 -0.0192765438569 0.00460299593336 0.0110480826356 -0.0196007926168 0.00440443766246 0.0120487005721 -0.0196023854285 0.00440443639406 0.0110486018405 -0.0189945200536 0.00468932054382 0.0120477346281 -0.0196301705916 0.00437681425923 0.0120487473961 -0.0196317634032 0.00437681299083 0.0110486486645 -0.0197852396683 0.00421259072151 0.0120489945758 -0.01978683248 0.00421258945311 0.0110488958442 -0.0199397260075 0.0039444676149 0.0120492409592 -0.0199413188192 0.0039444663465 0.0110491422276 -0.0199724494893 0.00385744152873 0.0110491919184 -0.0200502446489 0.00359127949397 0.0120494174252 -0.0200518374606 0.00359127822557 0.0110493186936 -0.020101244849 0.00334043880162 0.012049498969 -0.0201028376607 0.00334043753322 0.0110494002374 -0.0199708566776 0.00385744279712 0.01204929065 -0.0203182000601 0.00215426565829 0.0120498460081 -0.0203197928717 0.00215426438989 0.0110497472765 -0.0168747018417 0.00152450760822 0.0120443625041 -0.0168762946534 0.00152450633982 0.0110442637725 -0.0165980892523 -0.0109146760619 0.0110438364637 -0.0165964964406 -0.0109146747935 0.0120439351953 -0.0171847435785 -0.00997574293266 0.0120448708789 -0.0171863363902 -0.00997574420106 0.0110447721473 -0.0172476298804 -0.00986729297631 0.0120449708975 -0.0172492226921 -0.00986729424471 0.0110448721659 -0.0173265782704 -0.00968085578591 0.0120450963985 -0.0173281710821 -0.00968085705431 0.0110449976669 -0.0173507945943 -0.00940917498388 0.0120451346222 -0.017352387406 -0.00940917625228 0.0110450358906 -0.0173315458895 -0.00933575963234 0.0110450026042 -0.0173299530779 -0.00933575836394 0.0120451013358 -0.0172655617802 -0.00919030704131 0.0110448973298 -0.0172639689685 -0.00919030577292 0.0120449960614 -0.0171026827618 -0.00903857728829 0.0110446377274 -0.0171010899501 -0.00903857601989 0.012044736459 -0.0170747944324 -0.00902395507543 0.0110445932924 -0.0169496436238 -0.00897135539783 0.0120444951721 -0.0169512364355 -0.00897135666622 0.0110443964405 -0.0167845606084 -0.00895022393111 0.0120442322251 -0.0167861534201 -0.00895022519951 0.0110441334935 -0.0170732016207 -0.00902395380704 0.012044692024 -0.0167346560688 -0.00895598419262 0.0120441527517 -0.0167362488805 -0.00895598546102 0.0110440540201 -0.0166088330155 -0.00898508400559 0.0120439523959 -0.0166104258272 -0.00898508527399 0.0110438536643 -0.0164619660383 -0.00906936707821 0.0120437185945 -0.0164635588499 -0.00906936834661 0.0110436198629 -0.0163738905079 -0.00915529696856 0.0110434771612 -0.0163722976962 -0.00915529570016 0.0120435758928 -0.016260386767 -0.00928570662385 0.0110432965544 -0.0161436584436 -0.00945601372397 0.0120432121309 -0.0161452512553 -0.00945601499237 0.0110431133993 -0.0162587939553 -0.00928570535545 0.012043395286 -0.0156150869418 -0.0102998930759 0.0120423713694 -0.0156166797535 -0.0102998943443 0.0110422726378 -0.0139593080139 -0.00926177420579 0.0110396317007 -0.0139577152022 -0.00926177293739 0.0120397304323 -0.0152751568597 -0.010086922313 0.0120418297081 -0.0152767496714 -0.0100869235814 0.0110417309765 -0.015560319135 -0.00963164925098 0.0120422832957 -0.0155619119467 -0.00963165051938 0.0110421845641 -0.0155870533347 -0.00958867052651 0.0120423258195 -0.0155886461464 -0.00958867179491 0.0110422270879 -0.015640628025 -0.00949481315971 0.0120424110265 -0.0156422208367 -0.00949481442811 0.0110423122949 -0.015683100105 -0.00940424695265 0.0120424785549 -0.0156846929167 -0.00940424822105 0.0110423798233 -0.0156912239023 -0.00937435341237 0.0120424914554 -0.015692816714 -0.00937435468076 0.0110423927238 -0.0157109016724 -0.00927666905133 0.0120425226714 -0.015712494484 -0.00927667031973 0.0110424239398 -0.0157156812976 -0.00917667282576 0.0120425301569 -0.0157172741093 -0.00917667409416 0.0110424314253 -0.0157087384661 -0.00909586727138 0.0110424177285 -0.0156848362323 -0.00898214820134 0.0120424807847 -0.0156864290439 -0.00898214946974 0.0110423820531 -0.0156428398215 -0.00885211471724 0.012042413734 -0.0156444326332 -0.00885211598564 0.0110423150024 -0.0157071456544 -0.00909586600298 0.0120425164601 -0.015612996867 -0.00877149092694 0.0110422648338 -0.0156114040554 -0.00877148965854 0.0120423635654 -0.0155131887014 -0.00853071137069 0.0110421055685 -0.0154115694885 -0.00831283037951 0.0120420447163 -0.0154131623002 -0.00831283164791 0.0110419459847 -0.0155115958897 -0.00853071010229 0.0120422043001 -0.015040290337 -0.00753363447295 0.0120414524087 -0.0150418831487 -0.00753363574135 0.0110413536771 -0.0153495833123 -0.00703978061462 0.0120419443792 -0.015351176124 -0.00703978188302 0.0110418456476 -0.0158337691753 -0.00806156650873 0.0120427168158 -0.015835361987 -0.00806156777713 0.0110426180842 -0.0158862681785 -0.00817930835242 0.0110426993095 -0.0159651000472 -0.00839937119812 0.0120429264089 -0.0159666928588 -0.00839937246652 0.0110428276773 -0.0160242126571 -0.00863461834566 0.0120430208533 -0.0160258054688 -0.00863461961406 0.0110429221217 -0.0158846753668 -0.00817930708402 0.0120427980411 -0.0160334434227 -0.00871252572107 0.0110429343851 -0.0160318506111 -0.00871252445267 0.0120430331167 -0.0160360504075 -0.00882932783411 0.0110429386852 -0.0160236504272 -0.00896391800235 0.0120430203755 -0.0160252432389 -0.00896391927075 0.0110429216439 -0.0160344575958 -0.00882932656571 0.0120430374168 -0.0161292341739 -0.00884960204526 0.0110430871205 -0.0163431911284 -0.00866127236519 0.0120435289095 -0.01634478394 -0.00866127363359 0.0110434301779 -0.0166944152765 -0.00850495200479 0.01204408809 -0.0166960080882 -0.00850495327319 0.0110439893584 -0.0161276413623 -0.00884960077686 0.0120431858521 -0.0167697136253 -0.00849791196465 0.0110441067369 -0.0167681208136 -0.00849791069625 0.0120442054685 -0.0170354091428 -0.00850322354677 0.0110445299048 -0.0170338163311 -0.00850322227837 0.0120446286364 -0.017356204793 -0.00863387904634 0.0110450409871 -0.0173546119814 -0.00863387777794 0.0120451397187 -0.0173958819552 -0.0086625106514 0.0110451042154 -0.0173942891435 -0.008662509383 0.012045202947 -0.0175668668536 -0.00880684685701 0.0110453767183 -0.0175652740419 -0.00880684558861 0.0120454754499 -0.0177260830476 -0.00903747371824 0.0110456305872 -0.0177244902359 -0.00903747244984 0.0120457293188 -0.0177583200069 -0.00911659941448 0.0110456820299 -0.0177567271953 -0.00911659814608 0.0120457807615 -0.0178082765091 -0.0092967392533 0.0110457618218 -0.0178066836974 -0.0092967379849 0.0120458605534 -0.0178007799872 -0.00954353336187 0.0110457501954 -0.0177991871755 -0.00954353209347 0.012045848927 -0.0177464406363 -0.00971859014549 0.0110456638737 -0.0177448478247 -0.00971858887709 0.0120457626053 -0.0176521627269 -0.00994211514035 0.011045514005 -0.0176505699152 -0.00994211387195 0.0120456127366 -0.0175039596593 -0.0101972972032 0.0110452782924 -0.0175023668476 -0.0101972959348 0.012045377024 -0.0166784201862 -0.0115126402211 0.0120440664299 -0.0166800129979 -0.0115126414895 0.0110439676983 -0.0137118027944 -0.00965437723525 0.0120393392768 -0.0137133956061 -0.00965437850365 0.0110392405452 -0.0168832440845 0.000456400467143 0.0110442761952 -0.0168816512728 0.000456401735542 0.0120443749268 -0.0203818837086 0.0005013144212 0.0120499495305 -0.0203834765203 0.000501313152801 0.0110498507989 -0.0203878148401 3.81095512137e-05 0.0120499595642 -0.0203894076517 3.81082828148e-05 0.0110498608326 -0.0168875824043 -6.8031344443e-06 0.0120443849605 -0.016889175216 -6.80440284319e-06 0.0110442862289 -0.0180050072473 0.00719260931301 0.0110460542329 -0.0179292521819 0.00712336961684 0.0110459336691 -0.0179276593702 0.00712337088524 0.0120460324007 -0.0180034144356 0.00719261058141 0.0120461529645 -0.0182396666983 0.007393122511 0.01104642771 -0.0184661084231 0.00756234224306 0.0120468894072 -0.0184677012348 0.00756234097466 0.0110467906756 -0.0182380738866 0.0073931237794 0.0120465264416 -0.018355191459 0.00754993056526 0.0110466115021 -0.0180141744993 0.00751920211644 0.0120461696873 -0.018015767311 0.00751920084804 0.0110460709557 -0.0177013607409 0.00750155121279 0.0120456715055 -0.0177029535526 0.00750154994439 0.0110455727739 -0.0183535986473 0.00754993183366 0.0120467102337 -0.0166665217688 0.0074513752668 0.0120440234283 -0.0166681145804 0.0074513739984 0.0110439246967 -0.0171383541381 0.0063623991888 0.0120447762753 -0.0171399469498 0.0063623979204 0.0110446775437 -0.0160270143217 0.00531548384643 0.0110429063544 -0.0160254215101 0.00531548511483 0.012043005086 -0.0168453372848 0.00608973243949 0.0120443099465 -0.0168469300964 0.00608973117109 0.0110442112149 -0.0162634073572 0.00743279627168 0.0120433814299 -0.0162650001689 0.00743279500328 0.0110432826983 -0.0151282710924 0.00738590019614 0.0120415736096 -0.015129863904 0.00738589892774 0.011041474878 -0.0149184569273 0.00787016743031 0.0120412388339 -0.014920049739 0.00787016616191 0.0110411401023 -0.0187000147978 0.00794735609924 0.0120472614509 -0.0187016076095 0.00794735483084 0.0110471627193 -0.0188984499243 0.00748939793484 0.0120475780703 -0.0189000427359 0.00748939666645 0.0110474793387 -0.0162209618969 0.00486412925769 0.0120433170867 -0.0162225547085 0.00486412798929 0.0110432183551 -0.0186746371893 -0.00695912841826 0.0110471386703 -0.0186730443776 -0.00695912714987 0.0120472374019 -0.0189649181658 -0.00611265930837 0.0120477011824 -0.0189665109775 -0.00611266057677 0.0110476024508 -0.0189975938448 -0.00601758529874 0.0120477531029 -0.0189991866565 -0.00601758656714 0.0110476543713 -0.0190467285852 -0.00584832437238 0.0120478311429 -0.0190483213969 -0.00584832564078 0.0110477324113 -0.0190764514911 -0.00569394799258 0.0120478782854 -0.0190780443028 -0.00569394926098 0.0110477795538 -0.0190739082733 -0.00562264594474 0.0120478741445 -0.019075501085 -0.00562264721314 0.0110477754129 -0.0190532042637 -0.00550212941937 0.0120478410173 -0.0190547970754 -0.00550213068777 0.0110477422857 -0.018975024872 -0.00535076711504 0.0120477163126 -0.0189766176837 -0.00535076838344 0.011047617581 -0.0189401570193 -0.00531043933605 0.012047660729 -0.018941749831 -0.00531044060445 0.0110475619974 -0.0188310382585 -0.00520855240956 0.0120474868113 -0.0188326310702 -0.00520855367796 0.0110473880797 -0.0186572069387 -0.00512251395576 0.012047209849 -0.0186587997504 -0.00512251522416 0.0110471111174 -0.0185706251526 -0.00509974500115 0.0120470719252 -0.0185722179643 -0.00509974626955 0.0110469731936 -0.0183914345756 -0.00507910230036 0.011046685242 -0.0183898417639 -0.00507910103196 0.0120467839736 -0.0181525803262 -0.00514751211603 0.0110463049165 -0.0181509875145 -0.00514751084763 0.0120464036481 -0.0180730251075 -0.0052169487861 0.0110461783005 -0.0180714322958 -0.00521694751771 0.0120462770321 -0.017917282095 -0.00539672482078 0.0110459304838 -0.0177851513086 -0.00569571969631 0.0120458216927 -0.0177867441202 -0.00569572096471 0.0110457229611 -0.0179156892833 -0.00539672355239 0.0120460292154 -0.0174901702787 -0.00655128506631 0.0120453529749 -0.0174917630904 -0.00655128633471 0.0110452542433 -0.0157557414097 -0.00595270370448 0.0110424886015 -0.015754148598 -0.00595270243608 0.0120425873331 -0.0170995779244 -0.00641657398447 0.0120447307254 -0.0171011707361 -0.00641657525287 0.0110446319938 -0.0173922535429 -0.00556780678077 0.0120451957801 -0.0173938463546 -0.00556780804917 0.0110450970485 -0.0174311284765 -0.00546463770521 0.0110451562952 -0.0176253593006 -0.00505799224746 0.0120455663904 -0.0176269521123 -0.00505799351586 0.0110454676588 -0.0180198388045 -0.00469750626773 0.0110460929343 -0.0180182459929 -0.00469750499933 0.0120461916659 -0.0174295356648 -0.00546463643681 0.0120452550268 -0.0180993589052 -0.00467216958368 0.0110462195503 -0.0180977660935 -0.00467216831528 0.0120463182819 -0.018415909448 -0.00460832164109 0.0110467236249 -0.0184143166363 -0.00460832037269 0.0120468223565 -0.0188280554406 -0.0046756498653 0.0110473801164 -0.018826462629 -0.0046756485969 0.012047478848 -0.0188577459173 -0.0046875735124 0.0110474274182 -0.019029988646 -0.00476831069948 0.0120478031122 -0.0190315814576 -0.00476831196788 0.0110477043806 -0.0192428573125 -0.0049329802647 0.0120481423472 -0.0192444501242 -0.0049329815331 0.0110480436156 -0.0188561531056 -0.004687572244 0.0120475261498 -0.019269028664 -0.00495990111418 0.0110480827949 -0.0192674358523 -0.00495989984578 0.0120481815265 -0.019379018039 -0.00509868874566 0.011048258146 -0.0193774252273 -0.00509868747726 0.0120483568776 -0.0194717522557 -0.00530676265837 0.0110484061034 -0.0194701594441 -0.00530676138997 0.012048504835 -0.0194754384923 -0.00533306560216 0.0120485132761 -0.0194770313039 -0.00533306687056 0.0110484145445 -0.019503690869 -0.00550938815619 0.0110484572276 -0.0195020980574 -0.00550938688779 0.0120485559592 -0.0194865840898 -0.00576907461594 0.0110484303118 -0.0194849912781 -0.00576907334754 0.0120485290434 -0.0194705226387 -0.00584626185025 0.0110484048293 -0.0194689298271 -0.00584626058185 0.0120485035609 -0.0194125396549 -0.00607611574973 0.011048312774 -0.0194109468432 -0.00607611448133 0.0120484115056 -0.0193445746838 -0.00628336169312 0.0110482047921 -0.0193429818721 -0.00628336042472 0.0120483035237 -0.0189124881799 -0.00753171800691 0.0120476194793 -0.0189140809916 -0.00753171927531 0.0110475207477 -0.0156032000456 -0.00639058237056 0.0120423474796 -0.0156047928573 -0.00639058363896 0.011042248748 -0.0169063751368 -0.000885918378339 0.0110443147374 -0.0169047823251 -0.00088591710994 0.012044413469 -0.0173144393906 -0.000939343347743 0.0120450659789 -0.0173160322023 -0.000939344616142 0.0110449672473 -0.0170926710745 -0.00264886728974 0.0110446136783 -0.0170910782628 -0.00264886602135 0.0120447124099 -0.0201525568689 -0.00304880408534 0.0120495887946 -0.0201541496806 -0.00304880535374 0.011049490063 -0.0200925911309 -0.00350815647867 0.0120494938725 -0.0200941839426 -0.00350815774707 0.0110493951409 -0.0166214555389 -0.0030546921769 0.0120439649779 -0.0166230483506 -0.0030546934453 0.0110438662463 -0.016799754658 0.0106412701813 0.0110441303082 -0.0167981618463 0.0106412714497 0.0120442290398 -0.0161392718617 0.0115320964238 0.0120431785259 -0.0161408646733 0.0115320951554 0.0110430797943 -0.0160630429961 0.0116303571581 0.0110429557266 -0.0159167630146 0.0117718736896 0.0120428238421 -0.0159183558263 0.0117718724212 0.0110427251105 -0.0156727603942 0.0118938680341 0.0120424350755 -0.0156743532059 0.0118938667657 0.0110423363439 -0.0160614501845 0.0116303584265 0.0120430544582 -0.0155967664075 0.0119013285525 0.0120423140339 -0.0155983592192 0.0119013272841 0.0110422153023 -0.0154372599712 0.0118930555691 0.0120420600058 -0.0154388527829 0.0118930543007 0.0110419612742 -0.0152364836031 0.0117969154222 0.0120417403603 -0.0152380764148 0.0117969141538 0.0110416416287 -0.0152142600482 0.0117763331129 0.0110416037236 -0.0152126672365 0.0117763343813 0.0120417024552 -0.0151201838295 0.0116805079979 0.0110414540142 -0.0150384748809 0.0115345730187 0.0120414253336 -0.0150400676926 0.0115345717503 0.011041326602 -0.0151185910178 0.0116805092663 0.0120415527458 -0.0150256362794 0.011486083227 0.0120414049476 -0.0150272290911 0.0114860819586 0.011041306216 -0.0150082273505 0.0113582970497 0.0110412761149 -0.0150066345388 0.0113582983181 0.0120413748465 -0.0150330939261 0.0111907771947 0.0110413159312 -0.0150315011144 0.0111907784631 0.0120414146628 -0.0150803024328 0.0110759395649 0.0110413912637 -0.0151584874972 0.0109226772554 0.0120416172482 -0.0151600803089 0.010922675987 0.0110415185166 -0.0152749524146 0.0107531844575 0.0120418029516 -0.0152765452263 0.0107531831891 0.01104170422 -0.0150787096211 0.0110759408333 0.0120414899953 -0.0158671143338 0.00995261264935 0.0120427470762 -0.0158687071455 0.00995261138095 0.0110426483446 -0.014296482553 0.00878966301666 0.0110401458091 -0.0142948897413 0.00878966428506 0.0120402445407 -0.015544624682 0.00971406938084 0.0120422337642 -0.0155462174936 0.00971406811244 0.0110421350326 -0.0152250689634 0.0101460239886 0.0120417242745 -0.015226661775 0.0101460227202 0.0110416255429 -0.0151949013421 0.0101866480247 0.0120416761764 -0.0151964941538 0.0101866467563 0.0110415774448 -0.0151270684208 0.0102708020686 0.0120415680353 -0.0151286612325 0.0102708008002 0.0110414693037 -0.0150583262636 0.0103433568328 0.0120414584607 -0.0150599190753 0.0103433555644 0.0110413597291 -0.0150351338466 0.0103618753074 0.0110413202314 -0.0149497841694 0.0104159432908 0.0120412854986 -0.0149513769811 0.0104159420224 0.011041186767 -0.0148585168839 0.0104569159823 0.0120411400894 -0.0148601096956 0.0104569147139 0.0110410413578 -0.0150335410349 0.0103618765758 0.012041418963 -0.0147801341293 0.0104784784075 0.0120410152254 -0.0147817269409 0.0104784771391 0.0110409164938 -0.0146660508737 0.0104993692616 0.0120408335037 -0.0146676436854 0.0104993679932 0.0110407347721 -0.0145297576993 0.0105077777982 0.0120406164252 -0.014531350511 0.0105077765298 0.0110405176935 -0.0144447508076 0.0105080454915 0.0110403797698 -0.0141825543478 0.010503154284 0.0120400634561 -0.0141841471594 0.0105031530156 0.0110399647245 -0.0139431438973 0.0104897449287 0.0120396821749 -0.0139447367089 0.0104897436603 0.0110395834433 -0.0144431579959 0.0105080467599 0.0120404785014 -0.0130821963676 0.010429030505 0.0120383110601 -0.0130837891793 0.0104290292366 0.0110382123285 -0.0127356697577 0.0108975066019 0.0120377585688 -0.0127372625694 0.0108975053335 0.0110376598372 -0.0138637300033 0.0109745083218 0.0120395550812 -0.013865322815 0.0109745070534 0.0110394563496 -0.0139919333835 0.0109789062314 0.0120397592594 -0.0139935261952 0.010978904963 0.0110396605277 -0.0142262287119 0.010973319654 0.0120401324179 -0.0142278215236 0.0109733183856 0.0110400336863 -0.0144682966155 0.0109423268791 0.0110404167194 -0.0144667038038 0.0109423281475 0.012040515451 -0.0145436794546 0.0109208668429 0.0110405368054 -0.0145420866429 0.0109208681113 0.012040635537 -0.0146533473479 0.0108806794987 0.0110407115194 -0.0147730072014 0.0108213841915 0.0120410034398 -0.0147746000131 0.0108213829231 0.0110409047082 -0.0146517545363 0.0108806807671 0.012040810251 -0.0147062104129 0.0109599374275 0.0110407956115 -0.0146082323645 0.0112295155356 0.0120407404928 -0.0146098251761 0.0112295142672 0.0110406417612 -0.0145910381817 0.0116135293495 0.0120407126214 -0.0145926309933 0.0116135280811 0.0110406138898 -0.0147046176013 0.0109599386959 0.0120408943431 -0.0146131876593 0.0116847117338 0.0110406465392 -0.0147135901048 0.0119300318585 0.0120409074028 -0.0147151829165 0.0119300305901 0.0110408086712 -0.0149524896044 0.012180841696 0.0120412875691 -0.0149540824161 0.0121808404276 0.0110411888375 -0.0146115948476 0.0116847130022 0.0120407452708 -0.0149936106419 0.0122073089586 0.0120413530271 -0.0149952034536 0.0122073076902 0.0110412542955 -0.0151905951385 0.0123136521283 0.0120416666205 -0.0151921879502 0.0123136508599 0.0110415678889 -0.0154634457506 0.0123775348703 0.0120421010962 -0.0154650385623 0.0123775336019 0.0110420023646 -0.0155488465708 0.0123786668637 0.0120422371088 -0.0155504393825 0.0123786655953 0.0110421383772 -0.0157348309865 0.0123593187532 0.0120425333422 -0.0157364237981 0.0123593174848 0.0110424346106 -0.0159633461149 0.0122620367497 0.0110427961428 -0.0159617533033 0.0122620380181 0.0120428948744 -0.0161063547883 0.0121475228317 0.0110430240514 -0.0162784268033 0.0119779857524 0.0120433995861 -0.016280019615 0.011977984484 0.0110433008545 -0.0164616424815 0.0117467397796 0.0120436916787 -0.0164632352932 0.0117467385112 0.0110435929471 -0.0161047619766 0.0121475241001 0.012043122783 -0.0173846479176 0.01049890437 0.01204516329 -0.0173862407293 0.0104989031016 0.0110450645584 -0.0145703928317 0.00841714477647 0.0120406837944 -0.0145719856433 0.00841714350807 0.0110405850628 -0.00471720403142 -0.0205887180629 0.0120250278569 -0.000866726005925 -0.0209424519366 0.0120188958247 -0.00843714080831 -0.0195334800134 0.0120309510924 0.00298318376083 -0.0205825860365 0.0120127637924 -0.0118999077899 -0.0178127369616 0.0120364639012 0.0067015351917 -0.0195214246775 0.0120068403977 -0.0149874584985 -0.0154849949227 0.0120413783503 0.0101614572353 -0.0177951689018 0.0120013277481 -0.0175947299519 -0.0126294702572 0.0120455272112 0.0132452966633 -0.0154624124185 0.011996413299 -0.0196329446489 -0.00934359230013 0.0120487692154 -0.0210326137497 -0.00573900575112 0.012050993833 -0.0217461393018 -0.00193877274564 0.0120521254129 -0.021749218538 0.00192802602832 0.0120521254129 -0.0210417463429 0.00572939061262 0.012050993833 -0.0196478198725 0.0093362017771 0.0120487692154 -0.0176148410237 0.0126253217353 0.0120455272112 -0.0150121207367 0.0154849952577 0.0120413783503 -0.0119282812291 0.0178176517411 0.0120364639012 -0.00846825918571 0.0195439075964 0.0120309510924 -0.00475000775468 0.0206050688758 0.0120250278569 -0.000900097987923 0.0209649347759 0.0120188958247 0.00295038003757 0.0206112009022 0.0120127637924 0.00667031681446 0.0195559628527 0.012006840557 0.010133083796 0.0178352198009 0.0120013277481 0.0132206345047 0.015507477762 0.011996413299 0.0158279059581 0.0126519530965 0.0119922644382 0.017866120655 0.00936607513944 0.0119890224339 0.000538300832574 0.0104162768667 0.012016618331 0.0192657896762 0.0057615885904 0.0119867978163 0.0032928109124 0.00964687011266 0.0120122323241 0.019979315308 0.00196125558495 0.0119856662364 0.00573759037995 0.00816281648531 0.0120083405175 0.0199823944645 -0.00190544318904 0.0119856662364 0.0192749223491 -0.0057069077733 0.0119867978163 0.00769135168767 0.00607427165541 0.0120052314997 0.00900917179372 0.00353592026593 0.012003135887 0.00959330066564 0.000736284535678 0.0120022091223 0.0094003731341 -0.00211717000241 0.0120025200081 0.00844472067339 -0.0048128318687 0.0120040454511 0.0178809957991 -0.00931361893782 0.0119890224339 0.00679738390529 -0.00715064442821 0.0120066720543 0.0158480170299 -0.012602838896 0.0119922644382 0.00458022471261 -0.00895731058414 0.012010205514 0.00195793620593 -0.0100987991444 0.0120143833612 -0.000875049212706 -0.0104904552506 0.0120188958247 -0.00370865481058 -0.0101033116037 0.0120234082882 -0.00633275798657 -0.00896600088651 0.0120275861353 -0.00855269175958 -0.00716286810735 0.0120311194358 -0.0102038497622 -0.00482768222816 0.0120337461983 -0.0111637942646 -0.00213354580338 0.0120352716412 -0.0113611661144 0.000719597928781 0.0120355823678 -0.0107815968311 0.00352016034325 0.0120346557623 -0.00232169463335 0.0104139993752 0.0120211733183 -0.00507497582179 0.00964020661846 0.0120255593252 -0.00751738860637 0.00815226118814 0.0120294511319 -0.00946782102953 0.00606050734348 0.0120325601496 -0.000875447455694 -0.00999035540916 0.0120188958247 -0.00369356558047 -0.00958749942416 0.0120233836021 -0.00369436190668 -0.0095875000583 0.0115233842362 -0.0008762437819 -0.00999035604329 0.0115188964588 -0.0062840032112 -0.00840696188453 0.0120275077768 -0.00628479953741 -0.00840696251866 0.0115275084109 -0.00843688431276 -0.00654447569072 0.0120309342103 -0.00843768063896 -0.00654447632485 0.0115309348444 -0.0099778889956 -0.00415080207495 0.0120333854624 -0.0099786853218 -0.00415080270909 0.0115333860965 -0.0107820628109 -0.0014200415942 0.01203466277 -0.0107828591371 -0.00142004222834 0.0115346634042 -0.0107843297938 0.00142675750317 0.01203466277 -0.01078512612 0.00142675686903 0.0115346634042 -0.00998450615203 0.00415879529034 0.0120333854624 -0.00998530247824 0.0041587946562 0.0115333860965 -0.00844731571487 0.00655492015588 0.0120309342103 -0.00844811204108 0.00655491952174 0.0115309348444 -0.00629740363783 0.00842083277991 0.0120275077768 -0.00629819996403 0.00842083214578 0.0115275084109 -0.00370884947903 0.00960549449035 0.0120233836021 -0.00370964580524 0.00960549385622 0.0115233842362 -0.000891376617787 0.0100129382484 0.0120188958247 -0.000892172943993 0.0100129376143 0.0115188964588 0.00192674158662 0.00960998226347 0.0120144080473 0.00192594526042 0.00960998162933 0.0115144086814 0.00451717921735 0.00842944472384 0.0120102838726 0.00451638289115 0.0084294440897 0.0115102845067 0.00667006031891 0.00656695853003 0.0120068574391 0.0066692639927 0.00656695789589 0.0115068580732 0.00821106500175 0.00417328491426 0.012004406187 0.00821026867554 0.00417328428013 0.0115044068211 0.00901533881693 0.00144252451315 0.0120031287201 0.00901454249072 0.00144252387901 0.0115031293542 0.00901760579981 -0.00140427458422 0.0120031287201 0.0090168094736 -0.00140427521836 0.0115031293542 0.00821768215819 -0.00413631245103 0.012004406187 0.00821688583198 -0.00413631308517 0.0115044068211 0.00668059172086 -0.00653243723694 0.0120068572798 0.00667979539466 -0.00653243787107 0.0115068579139 0.00453057964398 -0.0083983499406 0.0120102838726 0.00452978331777 -0.00839835057474 0.0115102845067 0.00194202548518 -0.00958301165104 0.0120144080473 0.00194122915898 -0.00958301228518 0.0115144086814 -0.00370945113679 -0.0101033122378 0.0115234089223 -0.000875845538912 -0.0104904558847 0.0115188964588 -0.00633355431278 -0.00896600152065 0.0115275867695 -0.00855348808578 -0.00716286874149 0.0115311200699 -0.0102046460884 -0.0048276828623 0.0115337468324 -0.0111645905909 -0.00213354643752 0.0115352722754 -0.0113619624406 0.000719597294645 0.0115355830019 -0.0107823931573 0.00352015970911 0.0115346563965 -0.00946861735574 0.00606050670934 0.0115325607838 -0.00751818493257 0.00815226055401 0.011529451766 -0.005075772148 0.00964020598432 0.0115255599593 -0.00232249095956 0.010413998741 0.0115211739525 0.000537504506368 0.0104162762325 0.0115166189651 0.00329201458619 0.00964686947852 0.0115122329583 0.00573679405374 0.00816281585117 0.0115083411516 0.00769055536146 0.00607427102127 0.0115052321338 0.00900837546752 0.00353591963179 0.0115031365211 0.00959250433943 0.000736283901541 0.0115022097564 0.00939957680789 -0.00211717063654 0.0115025206423 0.00844392434719 -0.00481283250283 0.0115040460852 0.00679658757909 -0.00715064506235 0.0115066726884 0.0045794283864 -0.00895731121827 0.0115102061482 0.00195713987972 -0.0100987997786 0.0115143839953 -0.00488886044332 -0.0215095550495 0.0118433021833 -0.00877513462282 -0.0204071494439 0.011849490277 -0.00906446756733 -0.0211536800841 0.011330251372 -0.00503616144135 -0.0222963725987 0.0113238371217 -0.0123926627559 -0.0186094296082 0.0118552494692 -0.0128142479688 -0.0192901655436 0.011336221113 -0.0156181961436 -0.0161776974155 0.0118603835451 -0.0161577520426 -0.016769527266 0.0113415429627 -0.0183420691032 -0.0131945655625 0.01186471795 -0.0189811118035 -0.0136772746023 0.0113460356773 -0.020471300716 -0.00976176003805 0.0118681047265 -0.021188243232 -0.0101190310718 0.0113495463621 -0.021933598006 -0.00599612331047 0.0118704288849 -0.0227039500917 -0.00621573683205 0.0113519554089 -0.0226790588833 -0.00202591568206 0.0118716111111 -0.0234766265527 -0.0021003508301 0.0113531807961 -0.0226822757247 0.00201368303712 0.0118716111111 -0.0234799609319 0.00208684784228 0.0113531807961 -0.0219431389556 0.00598507289067 0.0118704288849 -0.0227138398324 0.00620345923022 0.0113519554089 -0.0204868408725 0.00975303377443 0.0118681047265 -0.021204351488 0.0101091625145 0.0113495463621 -0.0183630792278 0.0131892260721 0.01186471795 -0.0190028899853 0.0136710167264 0.0113460356773 -0.0156439608165 0.0161766923259 0.0118603835451 -0.0161844586107 0.0167676621005 0.0113415429627 -0.0124223045047 0.0186136585896 0.0118552494692 -0.012844973359 0.0192937222227 0.011336221113 -0.00880764410335 0.020417137612 0.011849490277 -0.00909816556548 0.0211631064985 0.011330251372 -0.00492313052258 0.0215256313054 0.0118433021833 -0.00507168446106 0.0223122132573 0.0113238371217 -0.000901133769892 0.0219016342481 0.0118368960555 -0.000902598691984 0.0227018333352 0.0113171967146 0.00312145672399 0.0215320374272 0.0118304899277 0.00326710231911 0.0223188536581 0.0113105563076 0.00700773082386 0.0204297318215 0.011824301834 0.00729540844509 0.0211761611436 0.0113041420572 0.010625258957 0.0186320119858 0.0118185426418 0.0110451887669 0.019312746603 0.0112981723163 0.0138507924242 0.0162001797932 0.0118134085659 0.0143886929203 0.0167920083254 0.0112928504665 0.0165746653839 0.0132170479401 0.011809074161 0.0172120526016 0.0136998556617 0.0112883577519 0.0187038969967 0.00978424241571 0.0118056873845 0.0194191841098 0.0101415121312 0.0112848470671 0.0201661942867 0.00601860568813 0.0118033632261 0.0209348909694 0.00623821789147 0.0112824380203 0.020911655164 0.00204839805972 0.0118021809999 0.0217075674304 0.00212283188951 0.0112812126332 0.0209148720054 -0.00199120065946 0.0118021809999 0.0217109018096 -0.00206436678286 0.0112812126332 0.0201757352363 -0.00596259051301 0.0118033632261 0.0209447807101 -0.0061809781708 0.0112824380203 0.0187194371532 -0.00973055139677 0.0118056873845 0.0194352923658 -0.0100866814551 0.0112848470671 0.0165956755085 -0.0131667436944 0.011809074161 0.0172338307834 -0.013648435667 0.0112883577519 0.0138765570972 -0.0161542099483 0.0118134085659 0.0144153994885 -0.016745181041 0.0112928504665 0.0106549007058 -0.0185910762119 0.0118185426418 0.0110759141571 -0.0192711411633 0.0112981723163 0.00704024030439 -0.0203945552344 0.011824301834 0.00732910644324 -0.0211406254391 0.0113041420572 0.0031558268031 -0.0215031488481 0.0118304897684 0.00330262533882 -0.0222897321979 0.0113105563076 -0.00926300586478 -0.0216641383473 0.0105488672309 -0.00513747783464 -0.0228344534502 0.0105422981747 -0.013103221878 -0.0197557958089 0.0105549809477 -0.0165273743999 -0.0171742217344 0.0105604311652 -0.0194188933792 -0.0140075233242 0.0105650323395 -0.0216791932077 -0.0103633221058 0.0105686275942 -0.0232314749438 -0.00636595696181 0.0105710947728 -0.0240228304505 -0.002151285803 0.0105723497833 -0.0240262452587 0.00213691283735 0.0105723497833 -0.023241603264 0.00635283900546 0.0105710947728 -0.0216956899118 0.0103526713258 0.0105686275942 -0.0194411968977 0.0140004677954 0.0105650323395 -0.0165547250371 0.0171717673755 0.0105604311652 -0.0131346884094 0.0197587916623 0.0105549809477 -0.00929751659397 0.0216732479118 0.0105488672309 -0.00517395770173 0.022850131985 0.010542298334 -0.000904279497983 0.0232491321703 0.010535497706 0.00336602875946 0.0228569326065 0.0105286970781 0.00749145678975 0.0216866174239 0.0105221281811 0.011331672803 0.0197782748855 0.0105160144644 0.0147558253249 0.017196700811 0.0105105642468 0.0176473443042 0.0140300024008 0.0105059630726 0.0199076441326 0.0103858011824 0.0105023678179 0.0214599258688 0.00638843603841 0.0104999006392 0.0222512813755 0.0021737648796 0.0104986456287 0.0222546961837 -0.00211443376075 0.0104986456287 0.0214700541093 -0.00633025992889 0.0104999006392 0.0199241408368 -0.0103301922492 0.0105023678179 0.0176696478227 -0.0139779887188 0.0105059630726 0.0147831759621 -0.0171492882989 0.0105105642468 0.0113631393344 -0.0197363125857 0.0105160144644 0.00752596751895 -0.0216507688351 0.0105221281811 0.00340240854708 -0.0228275529084 0.0105286970781 -0.000866936633128 -0.0230781527815 0.0108187973467 -0.000868579294642 -0.0234413542047 0.00960579888514 0.0034404958206 -0.0230385226454 0.00959893550667 0.00760224613159 -0.0218509081559 0.00959230577037 0.011474803796 -0.0199187237222 0.00958613567371 0.0149264213413 -0.0173077742791 0.00958063512833 0.0178395698272 -0.0141071534463 0.00957599143022 0.0201149360516 -0.0104257403441 0.00957236288908 0.021675119917 -0.00638889664811 0.00956987293551 0.0224669309233 -0.00213406475878 0.00956860645791 0.0224634845805 0.00219373386901 0.00956860645791 0.0216648981081 0.00644729928194 0.00956987293551 0.0200982869305 0.0104816530268 0.00957236288908 0.0178170603786 0.0141594375913 0.00957599143022 0.0148988180297 0.0173555147303 0.00958063512833 0.0114430466053 0.0199608636333 0.00958613567371 0.00756731655333 0.0218868778966 0.00959230592963 0.00340377998312 0.0230679627357 0.00959893550667 -0.000905931158274 0.0234638309231 0.00960579888514 -0.00521500635315 0.0230610993637 0.00961266226362 -0.00937665658466 0.0218733849539 0.00961929184065 -0.0132493142489 0.0199412004405 0.00962546209658 -0.0167009318739 0.0173303509974 0.00963096264196 -0.0196140802802 0.0141296301647 0.00963560634007 -0.0218894465045 0.0104482170625 0.00963923488121 -0.0234496303699 0.00641137336648 0.00964172483478 -0.0242414413762 0.00215654147716 0.00964299131238 -0.0242379950334 -0.00217125715064 0.00964299131238 -0.023439408561 -0.00642482256357 0.00964172483478 -0.0218727973834 -0.0104591763084 0.00963923488121 -0.0195914708317 -0.0141369607932 0.0096356061808 -0.0166733284826 -0.0173330380119 0.00963096264196 -0.0132175570582 -0.0199383869149 0.00962546209658 -0.00934182700625 -0.0218644011782 0.00961929184065 -0.00517829051567 -0.0230453860174 0.00961266226362 -0.000866261030435 -0.0221673519547 0.0116983962312 -0.00530430656831 -0.0235874865392 -0.00617705637474 -0.000893288022406 -0.0239927740558 -0.00618408108896 -0.0095657651212 -0.0223786796692 -0.00617027087699 -0.0135325311025 -0.0204074378859 -0.00616395568965 -0.0170696512924 -0.0177407537436 -0.00615832566159 -0.020056453337 -0.0144696311767 -0.00615357286675 -0.0223913486861 -0.0107053893227 -0.00614985895942 -0.0239947353769 -0.00657616483313 -0.00614731055549 -0.0248122014522 -0.00222261442283 -0.00614601413601 -0.024815728861 0.00220698417269 -0.00614601413601 -0.0240051975172 0.00656183100123 -0.00614731055549 -0.0224083892814 0.0106936038923 -0.00614985895942 -0.0200794920243 0.0144615596501 -0.00615357286675 -0.0170979035308 0.0177374350074 -0.00615832566159 -0.0135651349289 0.0204097490927 -0.00616395553038 -0.00960141348274 0.0223873061369 -0.00617027087699 -0.00534188562395 0.0236029984982 -0.00617705637474 -0.000931518075135 0.0240152107224 -0.00618408108896 0.00347950039113 0.0236100232057 -0.00619110580318 0.00774095902366 0.0224011163358 -0.00619789130093 0.0117078250048 0.0204298746321 -0.00620420664754 0.0152448451153 0.0177632904102 -0.00620983651634 0.0182316472394 0.0144920678433 -0.00621458931117 0.0205665425886 0.0107278259893 -0.0062183032185 0.0221699292794 0.00659860149973 -0.00622085162244 0.0229873953547 0.00224505108943 -0.00622214804191 0.0229909227635 -0.00218454750609 -0.00622214804191 0.0221803914197 -0.00653939433463 -0.00622085162244 0.0205835831839 -0.0106711672257 -0.0062183032185 0.0182546859268 -0.0144391229835 -0.00621458931117 0.0152730974332 -0.0177149983408 -0.00620983651634 0.0117403288314 -0.0203873124261 -0.00620420664754 0.00777660738519 -0.0223648694703 -0.00619789130093 0.00351707944677 -0.0235804618316 -0.00619110580318 0.0168376308495 0.0278299619798 -0.0293162153428 0.0160682709277 0.027022549062 -0.00621115969238 0.0180194441857 0.0278118030836 -0.0293180975401 0.0185297414821 0.0269310091677 -0.00621507984827 0.0207021929426 0.0266126390479 -0.00621853940893 0.0200535625603 0.0276607228585 -0.0293213369961 0.0218541582047 0.0262781562825 -0.0062203736673 0.0219356445027 0.0273044214977 -0.0293243340503 0.0231915888279 0.0256102211025 -0.00622250288498 0.0234958273911 0.0266961637201 -0.0293268181111 0.0241095995894 0.0248421518955 -0.00622396398477 0.0245859323852 0.0259351315585 -0.0293285533065 0.0247859132216 0.0239451901777 -0.00622503998108 0.0253261935176 0.0251040207847 -0.0293297312325 0.0253995005107 0.0225790783605 -0.00622601548099 0.0258416028658 0.0242126309363 -0.029330550971 0.0257273000197 0.0213235389979 -0.00622653595996 0.0263494469414 0.0227753348904 -0.0293313579682 0.0259241259355 0.0200349953271 -0.0062268478014 0.0265191519613 0.0220153697901 -0.0293316272858 0.0260313902967 0.0186982803207 -0.00622701694114 0.0267460096594 0.0203101499023 -0.0293319864291 0.0260718148445 0.0170349119844 -0.00622707921387 0.0268411747663 0.0178423249023 -0.0293321348643 -0.0187803126839 0.027801598451 -0.0292594882313 -0.0212480345539 0.027706433308 -0.0292555578824 -0.0229533522785 0.027479575246 -0.0292528416128 -0.023713316335 0.0273097700125 -0.0292516310374 -0.0251506106366 0.0268020252957 -0.0292493412803 -0.0260420993533 0.026286615216 -0.0292479207931 -0.0268731090717 0.025546353226 -0.029246596343 -0.0276341402659 0.0244562468509 -0.0292453829007 -0.0282423972688 0.022896061985 -0.0292444121788 -0.028598698174 0.0210139776563 -0.0292438423275 -0.0287497782034 0.0189798567023 -0.0292435991294 -0.0287679370742 0.0177980418671 -0.0292435687098 -0.0287395735094 -0.0178199468395 -0.0292435687098 -0.0286444084821 -0.0202876718395 -0.029243717145 -0.0284174507046 -0.0219929916477 -0.0292440764475 -0.0282477456847 -0.022752956748 -0.0292443457651 -0.0277400016089 -0.0241902528735 -0.0292451526031 -0.0272245922607 -0.0250816427219 -0.0292459723415 -0.0264843311283 -0.0259127534957 -0.0292471502676 -0.0253941261344 -0.0266737855777 -0.0292488856223 -0.0238340432458 -0.0272820434349 -0.0292513695238 -0.0219518613035 -0.0276383447161 -0.0292543667373 -0.019917742929 -0.0277894249412 -0.0292576061933 -0.0187360295926 -0.0278075839171 -0.0292594882313 0.0168820139406 -0.0277792203086 -0.0293162155021 0.0193497358107 -0.0276840551656 -0.029320145851 0.0210549534557 -0.0274570971833 -0.0293228619613 0.0218149175919 -0.0272873919497 -0.0293240725367 0.0232521118937 -0.0267796473125 -0.0293263621346 0.02414360069 -0.0262643372328 -0.0293277826217 0.0249747103286 -0.0255239751633 -0.0293291072311 0.0257357415228 -0.0244338687881 -0.0293303206734 0.0268695383311 -0.0177756638044 -0.0293321348643 0.0268513793806 -0.0189573786395 -0.0293321044447 0.0263439985257 -0.0228736839222 -0.0293312913953 0.0267002993513 -0.0209914995935 -0.0293318612466 0.0260988934565 -0.0169694772338 -0.00622707921387 0.0260073536833 -0.0194309509099 -0.00622693030082 0.0256889839717 -0.021603405125 -0.00622642049262 0.0253545016329 -0.0227553718475 -0.00622588631684 0.0246865673026 -0.0240928041655 -0.00622482083203 0.0239184990716 -0.0250108160898 -0.00622359640047 0.0230215384927 -0.0256871305779 -0.00622216699448 0.0216555284092 -0.0263007185628 -0.00621999063427 0.0203996906401 -0.0266285187238 -0.00621799010294 0.0191112486038 -0.0268253448071 -0.00621593781039 0.0177744352135 -0.0269325093813 -0.00621380859271 0.0161112690662 -0.0269730338177 -0.00621115969238 -0.0279236995541 0.0169919139004 -0.00614108296405 -0.0278321597809 0.0194533875765 -0.0061412318771 -0.0275137900692 0.0216258417916 -0.0061417416853 -0.0271793077304 0.0227778085141 -0.00614227586109 -0.0265112734003 0.0241152409117 -0.00614334150515 -0.0257433051691 0.0250332527564 -0.00614456577745 -0.0248463445903 0.0257095672445 -0.00614599518344 -0.0234802345069 0.026323155309 -0.00614817170292 -0.0222248966574 0.0266508550719 -0.00615017143792 -0.020936254701 0.0268477813144 -0.006152224049 -0.0195996413104 0.0269549457293 -0.00615435294815 -0.0179360751638 0.0269954704843 -0.00615700248554 -0.0278966209421 -0.0170124753178 -0.00614108296405 -0.0178930770252 -0.0270001123954 -0.00615700248554 -0.0203545475796 -0.0269085725011 -0.00615308232966 -0.0225269990401 -0.0265902023813 -0.00614962276899 -0.0236789643023 -0.0262557196159 -0.00614778851063 -0.025016395005 -0.0255876844359 -0.00614565929294 -0.025934405687 -0.0248197152289 -0.00614419819316 -0.0266107193191 -0.0239227535111 -0.00614312219685 -0.0272243066082 -0.0225566416939 -0.00614214669694 -0.0275521061172 -0.0213011023313 -0.00614162621796 -0.027748932033 -0.0200125586605 -0.00614131437652 -0.0278560963944 -0.0186758435745 -0.00614114539605 -0.033263687877 -0.00406124515018 -0.0291498806991 -0.0332323903156 -0.00406222022741 -0.0291519305466 -0.0330134390332 -0.0040620458706 -0.0231549716543 -0.0333669355452 -0.00391582732295 -0.0231421088264 -0.0335135087719 -0.00356234393105 -0.0231367758277 -0.0335910441784 -0.00390470578312 -0.0289810593187 -0.0337142640741 -0.00356250379791 -0.028633963066 -0.0332716509052 0.00593845167923 -0.0291498806991 -0.0332403549364 0.00593947660137 -0.0291519305466 -0.033721432209 0.005438993348 -0.028633963066 -0.0335987574785 0.00578139114573 -0.0289810593187 -0.0332282457756 -0.00373621682364 -0.0221798287183 -0.0332029830513 -0.00302849648186 -0.0214726689538 -0.0333917976996 -0.00293714681104 -0.0216243685459 -0.0334146073127 -0.00357776517807 -0.0222646322177 -0.032950978256 -0.00306179581427 -0.0214237702056 -0.0329420482444 -0.00206158838593 -0.0211559853569 -0.0333007610915 -0.00206187403864 -0.0212894142209 -0.0334600155607 -0.00206200085727 -0.0216374610251 -0.0334751702064 -0.0031229132617 -0.0220766361005 -0.032977160648 -0.00379401689617 -0.0221555285055 -0.0333055398481 0.00393912405864 -0.0212894142209 -0.0334647943173 0.00393899724001 -0.0216374610251 -0.032946827001 0.00393940971135 -0.0211559853569 -0.0332093013464 0.00490580100243 -0.0214726689538 -0.0332356911914 0.00561348021187 -0.0221798287183 -0.0334218001337 0.00545473195802 -0.0222646322177 -0.0333979702668 0.00481415073127 -0.0216243685459 -0.0329846984378 0.00567168010256 -0.0221555285055 -0.0330214036541 0.00593965095818 -0.0231549716543 -0.0332712360479 0.00587245198866 -0.0231458736614 -0.0334539797576 0.00568920640687 -0.0231391823733 -0.0335207769066 0.00543915313523 -0.0231367756684 -0.0334932228749 0.00523817501352 -0.0223871183468 -0.0334727115947 0.0046890911731 -0.0218383496217 -0.0329573499049 0.00493950164878 -0.0214237702056 -0.0284490843375 0.0039429913851 -0.0213202489104 -0.0284443055809 -0.00205800671217 -0.0213202489104 -0.0284645116425 -0.00347252325129 -0.0219057156778 -0.0285156963698 -0.00405846419684 -0.0233192352079 -0.0287346476521 -0.00405863855365 -0.0293161941001 -0.028742612273 0.00594305827513 -0.0293161941001 -0.0285236609906 0.00594323263194 -0.0233192352079 -0.0284596072415 0.00494308332253 -0.0215880337591 -0.0284869556151 0.00567526177644 -0.0223196920592</float_array><technique_common><accessor source="#mesh0-array" count="1296" stride="3"><param name="X" type="float" /><param name="Y" type="float" /><param name="Z" type="float" /></accessor></technique_common></source><vertices id="mesh0-vertices"><input semantic="POSITION" source="#mesh0-positions" /></vertices><triangles count="2580" material="mesh0-material0"><input semantic="VERTEX" source="#mesh0-vertices" offset="0" /><p>0 1 9 0 9 8 1 2 10 1 10 9 2 3 11 2 11 10 3 4 12 3 12 11 4 5 13 4 13 12 5 6 14 5 14 13 6 7 15 6 15 14 7 0 8 7 8 15 8 9 17 8 17 16 9 10 18 9 18 17 10 11 19 10 19 18 11 12 20 11 20 19 12 13 21 12 21 20 13 14 22 13 22 21 14 15 23 14 23 22 15 8 16 15 16 23 16 17 25 16 25 24 17 18 26 17 26 25 18 19 27 18 27 26 19 20 28 19 28 27 20 21 29 20 29 28 21 22 30 21 30 29 22 23 31 22 31 30 23 16 24 23 24 31 24 25 33 24 33 32 25 26 34 25 34 33 26 27 35 26 35 34 27 28 36 27 36 35 28 29 37 28 37 36 29 30 38 29 38 37 30 31 39 30 39 38 31 24 32 31 32 39 32 33 41 32 41 40 33 34 42 33 42 41 34 35 43 34 43 42 35 36 44 35 44 43 36 37 45 36 45 44 37 38 46 37 46 45 38 39 47 38 47 46 39 32 40 39 40 47 40 41 49 40 49 48 41 42 50 41 50 49 42 43 51 42 51 50 43 44 52 43 52 51 44 45 53 44 53 52 45 46 54 45 54 53 46 47 55 46 55 54 47 40 48 47 48 55 48 49 57 48 57 56 49 50 58 49 58 57 50 51 59 50 59 58 51 52 60 51 60 59 52 53 61 52 61 60 53 54 62 53 62 61 54 55 63 54 63 62 55 48 56 55 56 63 56 57 65 56 65 64 57 58 66 57 66 65 58 59 67 58 67 66 59 60 68 59 68 67 60 61 69 60 69 68 61 62 70 61 70 69 62 63 71 62 71 70 63 56 64 63 64 71 64 65 73 64 73 72 65 66 74 65 74 73 66 67 75 66 75 74 67 68 76 67 76 75 68 69 77 68 77 76 69 70 78 69 78 77 70 71 79 70 79 78 71 64 72 71 72 79 72 73 81 72 81 80 73 74 82 73 82 81 74 75 83 74 83 82 75 76 84 75 84 83 76 77 85 76 85 84 77 78 86 77 86 85 78 79 87 78 87 86 79 72 80 79 80 87 80 81 89 80 89 88 81 82 90 81 90 89 82 83 91 82 91 90 83 84 92 83 92 91 84 85 93 84 93 92 85 86 94 85 94 93 86 87 95 86 95 94 87 80 88 87 88 95 88 89 97 88 97 96 89 90 98 89 98 97 90 91 99 90 99 98 91 92 100 91 100 99 92 93 101 92 101 100 93 94 102 93 102 101 94 95 103 94 103 102 95 88 96 95 96 103 96 97 105 96 105 104 97 98 106 97 106 105 98 99 107 98 107 106 99 100 108 99 108 107 100 101 109 100 109 108 101 102 110 101 110 109 102 103 111 102 111 110 103 96 104 103 104 111 104 105 113 104 113 112 105 106 114 105 114 113 106 107 115 106 115 114 107 108 116 107 116 115 108 109 117 108 117 116 109 110 118 109 118 117 110 111 119 110 119 118 111 104 112 111 112 119 112 113 121 112 121 120 113 114 122 113 122 121 114 115 123 114 123 122 115 116 124 115 124 123 116 117 125 116 125 124 117 118 126 117 126 125 118 119 127 118 127 126 119 112 120 119 120 127 120 121 129 120 129 128 121 122 130 121 130 129 122 123 131 122 131 130 123 124 132 123 132 131 124 125 133 124 133 132 125 126 134 125 134 133 126 127 135 126 135 134 127 120 128 127 128 135 128 129 137 128 137 136 129 130 138 129 138 137 130 131 139 130 139 138 131 132 140 131 140 139 132 133 141 132 141 140 133 134 142 133 142 141 134 135 143 134 143 142 135 128 136 135 136 143 136 137 145 136 145 144 137 138 146 137 146 145 138 139 147 138 147 146 139 140 148 139 148 147 140 141 149 140 149 148 141 142 150 141 150 149 142 143 151 142 151 150 143 136 144 143 144 151 144 145 153 144 153 152 145 146 154 145 154 153 146 147 155 146 155 154 147 148 156 147 156 155 148 149 157 148 157 156 149 150 158 149 158 157 150 151 159 150 159 158 151 144 152 151 152 159 152 153 161 152 161 160 153 154 162 153 162 161 154 155 163 154 163 162 155 156 164 155 164 163 156 157 165 156 165 164 157 158 166 157 166 165 158 159 167 158 167 166 159 152 160 159 160 167 160 161 169 160 169 168 161 162 170 161 170 169 162 163 171 162 171 170 163 164 172 163 172 171 164 165 173 164 173 172 165 166 174 165 174 173 166 167 175 166 175 174 167 160 168 167 168 175 168 169 177 168 177 176 169 170 178 169 178 177 170 171 179 170 179 178 171 172 180 171 180 179 172 173 181 172 181 180 173 174 182 173 182 181 174 175 183 174 183 182 175 168 176 175 176 183 176 177 185 176 185 184 177 178 186 177 186 185 178 179 187 178 187 186 179 180 188 179 188 187 180 181 189 180 189 188 181 182 190 181 190 189 182 183 191 182 191 190 183 176 184 183 184 191 184 185 193 184 193 192 185 186 194 185 194 193 186 187 195 186 195 194 187 188 196 187 196 195 188 189 197 188 197 196 189 190 198 189 198 197 190 191 199 190 199 198 191 184 192 191 192 199 192 193 201 192 201 200 193 194 202 193 202 201 194 195 203 194 203 202 195 196 204 195 204 203 196 197 205 196 205 204 197 198 206 197 206 205 198 199 207 198 207 206 199 192 200 199 200 207 200 201 209 200 209 208 201 202 210 201 210 209 202 203 211 202 211 210 203 204 212 203 212 211 204 205 213 204 213 212 205 206 214 205 214 213 206 207 215 206 215 214 207 200 208 207 208 215 208 209 217 208 217 216 209 210 218 209 218 217 210 211 219 210 219 218 211 212 220 211 220 219 212 213 221 212 221 220 213 214 222 213 222 221 214 215 223 214 223 222 215 208 216 215 216 223 216 217 225 216 225 224 217 218 226 217 226 225 218 219 227 218 227 226 219 220 228 219 228 227 220 221 229 220 229 228 221 222 230 221 230 229 222 223 231 222 231 230 223 216 224 223 224 231 224 225 233 224 233 232 225 226 234 225 234 233 226 227 235 226 235 234 227 228 236 227 236 235 228 229 237 228 237 236 229 230 238 229 238 237 230 231 239 230 239 238 231 224 232 231 232 239 232 233 241 232 241 240 233 234 242 233 242 241 234 235 243 234 243 242 235 236 244 235 244 243 236 237 245 236 245 244 237 238 246 237 246 245 238 239 247 238 247 246 239 232 240 239 240 247 240 241 249 240 249 248 241 242 250 241 250 249 242 243 251 242 251 250 243 244 252 243 252 251 244 245 253 244 253 252 245 246 254 245 254 253 246 247 255 246 255 254 247 240 248 247 248 255 248 249 257 248 257 256 249 250 258 249 258 257 250 251 259 250 259 258 251 252 260 251 260 259 252 253 261 252 261 260 253 254 262 253 262 261 254 255 263 254 263 262 255 248 256 255 256 263 256 257 265 256 265 264 257 258 266 257 266 265 258 259 267 258 267 266 259 260 268 259 268 267 260 261 269 260 269 268 261 262 270 261 270 269 262 263 271 262 271 270 263 256 264 263 264 271 264 265 273 264 273 272 265 266 274 265 274 273 266 267 275 266 275 274 267 268 276 267 276 275 268 269 277 268 277 276 269 270 278 269 278 277 270 271 279 270 279 278 271 264 272 271 272 279 272 273 281 272 281 280 273 274 282 273 282 281 274 275 283 274 283 282 275 276 284 275 284 283 276 277 285 276 285 284 277 278 286 277 286 285 278 279 287 278 287 286 279 272 280 279 280 287 280 281 289 280 289 288 281 282 290 281 290 289 282 283 291 282 291 290 283 284 292 283 292 291 284 285 293 284 293 292 285 286 294 285 294 293 286 287 295 286 295 294 287 280 288 287 288 295 0 7 6 6 5 4 4 3 2 2 1 0 0 6 4 4 2 0 295 288 289 289 290 291 291 292 293 293 294 295 295 289 291 291 293 295 716 719 718 716 718 717 984 985 906 984 906 905 308 310 311 308 311 309 950 948 947 950 947 949 968 969 913 968 913 912 841 840 842 841 842 843 413 415 414 413 414 412 942 940 939 942 939 941 306 308 309 306 309 307 335 348 336 335 336 332 348 346 338 348 338 336 328 326 322 328 322 320 304 308 306 360 362 363 360 363 361 322 324 325 322 325 323 618 619 616 618 616 617 480 485 481 480 481 482 1272 1273 1269 1272 1269 1268 716 717 714 716 714 715 663 662 664 663 664 665 474 475 472 474 472 471 794 793 795 794 795 796 298 297 329 298 329 331 312 310 302 312 302 300 303 367 352 303 352 301 322 326 324 487 484 483 487 483 486 330 317 316 330 316 331 482 481 483 482 483 484 373 372 371 373 371 370 577 581 580 577 580 578 358 360 361 358 361 359 508 507 509 508 509 510 972 973 916 972 916 917 342 344 345 342 345 343 353 366 354 353 354 350 366 364 356 366 356 354 310 308 304 310 304 302 340 344 342 411 413 412 411 412 410 439 443 442 439 442 440 362 364 365 362 365 363 762 765 763 762 763 764 350 354 355 350 355 351 692 697 693 692 693 694 547 551 550 547 550 548 392 393 390 392 390 389 811 808 807 811 807 810 420 438 440 420 440 419 305 365 367 305 367 303 346 344 340 346 340 338 358 362 360 930 928 927 930 927 929 766 767 764 766 764 763 982 983 903 982 903 901 371 372 368 403 402 404 403 404 405 498 501 500 498 500 499 451 459 454 451 454 452 779 776 775 779 775 778 979 980 899 979 899 898 348 335 334 348 334 349 631 628 627 631 627 630 1291 1292 1293 1291 1293 1290 960 958 957 960 957 959 1267 1288 1287 1267 1287 1274 314 318 319 314 319 315 1259 1292 1291 1259 1291 1252 415 417 416 415 416 414 375 425 424 375 424 376 985 964 907 985 907 906 569 573 570 569 570 568 501 503 502 501 502 500 299 296 297 299 297 298 940 938 937 940 937 939 611 613 615 611 615 608 962 960 959 962 959 961 1274 1272 1268 1274 1268 1267 859 856 855 859 855 858 980 981 900 980 900 899 739 736 737 739 737 738 783 780 781 783 781 782 366 353 352 366 352 367 746 753 748 746 748 747 399 398 400 399 400 401 975 976 892 975 892 890 836 835 837 836 837 838 633 631 630 633 630 632 1257 1255 1283 1257 1283 1260 431 430 432 431 432 433 666 667 665 666 665 664 512 513 510 512 510 509 356 358 359 356 359 357 848 851 850 848 850 849 434 441 435 434 435 436 552 555 553 552 553 554 964 963 908 964 908 907 565 569 568 565 568 566 369 368 372 369 372 373 340 342 343 340 343 341 383 391 386 383 386 384 557 554 553 557 553 556 377 385 378 377 378 374 418 423 420 418 420 419 515 514 516 515 516 517 427 489 488 427 488 428 723 725 724 723 724 722 324 326 327 324 327 325 660 661 659 660 659 658 296 300 301 296 301 297 653 650 651 653 651 652 344 346 347 344 347 345 310 312 313 310 313 311 386 391 387 386 387 388 510 582 584 510 584 508 1278 1277 1284 1278 1284 1285 1149 1150 1224 1149 1224 1223 960 984 983 960 983 958 1261 1258 1251 1261 1251 1256 403 456 458 403 458 401 390 393 468 390 468 470 669 708 710 669 710 667 374 378 482 374 482 484 468 393 467 612 738 737 612 737 734 774 826 828 774 828 772 955 931 929 955 929 957 772 828 830 772 830 770 423 418 387 423 387 391 321 323 1190 321 1190 1189 770 830 832 770 832 768 671 706 708 671 708 669 364 362 358 364 358 356 614 612 734 614 734 733 831 829 916 831 916 915 678 698 700 678 700 676 351 355 1195 351 1195 1194 682 694 695 682 695 680 1289 1295 1294 1289 1294 1288 802 784 782 802 782 809 619 625 629 619 629 623 914 534 532 914 532 913 406 404 402 406 402 400 429 431 433 494 495 493 494 493 492 617 633 632 617 632 618 861 859 858 861 858 860 477 476 478 477 478 479 493 490 491 493 491 492 963 965 909 963 909 908 854 853 855 854 855 856 497 496 498 497 498 499 466 473 468 466 468 467 336 338 339 336 339 337 470 469 471 470 471 472 605 602 603 605 603 604 571 579 574 571 574 572 328 330 331 328 331 329 436 435 437 436 437 438 581 583 582 581 582 580 748 753 749 748 749 750 840 841 838 840 838 837 454 459 455 454 455 456 465 464 466 465 466 467 490 525 524 490 524 491 443 447 444 443 444 442 318 320 321 318 321 319 418 419 416 418 416 417 532 533 531 532 531 530 970 971 918 970 918 914 613 611 610 613 610 612 595 597 596 595 596 594 601 603 602 601 602 600 326 328 329 326 329 327 519 523 520 519 520 518 317 314 315 317 315 316 449 453 450 449 450 448 615 613 612 615 612 614 599 601 600 599 600 598 948 946 945 948 945 947 593 595 594 593 594 592 852 857 853 852 853 854 559 557 556 559 556 558 364 366 367 364 367 365 513 512 514 513 514 515 478 485 480 478 480 479 527 526 607 527 607 606 432 441 434 432 434 433 332 336 337 332 337 333 456 455 457 456 457 458 591 593 592 591 592 590 824 827 825 824 825 826 672 675 674 672 674 673 607 605 604 607 604 606 686 731 730 686 730 687 531 529 528 531 528 530 774 773 775 774 775 776 743 741 740 743 740 742 583 585 584 583 584 582 624 629 625 624 625 626 505 511 506 505 506 504 597 599 598 597 598 596 766 769 768 766 768 767 744 747 856 744 856 859 747 748 854 747 854 856 748 750 852 748 852 854 750 752 850 750 850 852 596 499 594 755 847 849 755 849 752 995 993 992 995 992 994 760 841 843 760 843 759 1290 1293 1295 1290 1295 1289 681 683 662 681 662 660 764 836 838 764 838 762 767 834 836 767 836 764 399 461 463 399 463 396 369 896 895 369 895 370 421 423 391 421 391 383 655 657 722 655 722 724 520 522 572 618 627 625 618 625 619 932 934 970 932 970 969 607 529 525 529 531 572 787 789 824 787 824 826 855 853 880 855 880 879 1171 1169 1219 1171 1219 1218 792 794 819 792 819 820 539 541 564 539 564 566 796 799 815 796 815 817 799 801 813 799 813 815 559 554 557 554 559 552 552 559 550 559 548 550 548 559 546 533 572 531 529 607 526 922 962 961 922 961 919 707 711 710 707 710 708 589 591 590 589 590 588 657 656 658 657 658 659 535 534 536 535 536 537 354 356 357 354 357 355 737 736 735 737 735 734 564 563 565 564 565 566 520 523 521 520 521 522 409 411 410 409 410 408 570 573 571 570 571 572 924 921 920 924 920 923 561 559 558 561 558 560 562 567 563 562 563 564 461 460 462 461 462 463 541 540 542 541 542 543 551 555 552 551 552 550 701 703 702 701 702 700 830 829 831 830 831 832 608 615 614 608 614 609 719 721 720 719 720 718 645 643 642 645 642 644 647 622 645 867 869 868 867 868 866 777 771 761 777 761 758 1265 1264 1270 1265 1270 1255 628 631 639 640 638 636 640 636 635 377 376 379 377 379 385 617 616 633 485 478 646 485 646 878 835 839 889 835 889 888 706 705 707 706 707 708 725 727 726 725 726 724 649 647 646 649 646 648 654 655 653 654 653 652 539 538 540 539 540 541 647 645 644 647 644 646 847 846 848 847 848 849 621 629 624 621 624 622 689 686 687 689 687 688 643 641 640 643 640 642 711 713 712 711 712 710 475 474 476 475 476 477 495 494 496 495 496 497 952 950 949 952 949 951 672 673 671 672 671 670 677 679 678 677 678 676 976 977 894 976 894 892 675 677 676 675 676 674 574 579 575 574 575 576 382 381 383 382 383 384 981 982 901 981 901 900 516 519 518 516 518 517 680 683 681 680 681 682 846 847 845 846 845 844 650 685 684 650 684 651 693 696 695 693 695 694 946 944 943 946 943 945 741 739 738 741 738 740 300 302 303 300 303 301 667 666 668 667 668 669 703 709 704 703 704 702 691 689 688 691 688 690 585 587 586 585 586 584 468 473 469 468 469 470 679 683 680 679 680 678 713 715 714 713 714 712 438 437 439 438 439 440 669 668 670 669 670 671 542 549 544 542 544 543 936 934 933 936 933 935 655 654 656 655 656 657 674 702 704 674 704 673 1280 1259 1258 1280 1258 1281 1172 1174 309 1172 309 311 388 390 470 388 470 472 1256 1251 1253 1256 1253 1254 1253 1271 1262 1253 1262 1254 717 663 714 757 845 847 757 847 755 653 655 724 653 724 726 500 592 594 500 594 499 513 580 582 513 582 510 1124 1125 1244 1124 1244 1243 912 530 528 912 528 911 577 575 565 577 565 563 651 684 658 651 658 656 837 835 888 837 888 887 646 447 443 646 443 648 682 685 694 487 489 425 487 425 375 427 434 425 427 425 489 731 689 685 689 691 692 689 731 686 834 839 835 834 835 836 758 761 760 758 760 759 444 447 445 444 445 446 851 857 852 851 852 850 661 660 662 661 662 663 639 637 636 639 636 638 1150 1151 1225 1150 1225 1224 684 681 660 684 660 658 304 306 307 304 307 305 406 407 405 406 405 404 798 799 796 798 796 795 619 623 620 619 620 616 392 395 394 392 394 393 704 709 705 704 705 706 731 729 728 731 728 730 634 649 648 634 648 635 611 608 609 611 609 610 429 426 430 429 430 431 525 522 521 525 521 524 750 749 751 750 751 752 576 575 577 576 577 578 755 754 756 755 756 757 460 461 458 460 458 457 729 726 727 729 727 728 335 332 333 335 333 334 801 800 802 801 802 803 450 453 451 450 451 452 641 639 638 641 638 640 817 816 818 817 818 819 489 487 486 489 486 488 928 926 925 928 925 927 699 701 700 699 700 698 380 379 381 380 381 382 445 449 448 445 448 446 401 400 402 401 402 403 370 371 368 370 368 369 377 374 375 377 375 376 690 697 692 690 692 691 772 777 773 772 773 774 790 797 792 790 792 791 978 979 898 978 898 897 787 786 788 787 788 789 789 788 790 789 790 791 799 798 800 799 800 801 744 779 778 744 778 745 823 827 824 823 824 822 815 813 812 815 812 814 802 809 804 802 804 803 538 539 537 538 537 536 353 350 351 353 351 352 506 511 507 506 507 508 806 805 807 806 807 808 420 423 421 420 421 422 426 429 427 426 427 428 828 833 829 828 829 830 544 549 545 544 545 546 825 833 828 825 828 826 813 811 810 813 810 812 780 861 860 780 860 781 953 933 931 953 931 955 626 625 627 626 627 628 843 842 844 843 844 845 804 809 805 804 805 806 529 526 527 529 527 528 378 385 379 378 379 380 771 777 772 771 772 770 721 723 722 721 722 720 809 782 781 809 781 805 1234 1233 1133 1234 1133 1134 768 832 834 768 834 767 657 659 720 657 720 722 850 752 849 1290 1289 1271 1290 1271 1253 502 590 592 502 592 500 504 588 590 504 590 502 506 586 588 506 588 504 508 584 586 508 586 506 1260 1283 1282 1260 1282 1261 1158 1142 1143 1158 1143 1159 515 578 580 515 580 513 517 576 578 517 578 515 518 574 576 518 576 517 520 572 574 520 574 518 774 776 826 525 529 572 525 572 522 605 607 525 605 525 490 840 837 887 840 887 886 783 785 826 795 790 788 795 788 798 535 537 568 535 568 570 537 539 566 537 566 568 865 867 866 865 866 864 541 543 562 541 562 564 946 977 976 946 976 944 789 791 822 789 822 824 813 808 811 808 813 806 806 813 804 813 803 804 803 813 801 787 826 785 1212 1213 1210 1212 1210 1211 851 848 882 851 882 881 859 861 779 859 779 744 956 982 981 956 981 954 412 446 448 412 448 410 934 936 971 934 971 970 543 544 561 543 561 562 533 535 570 533 570 572 1122 1121 1241 1122 1241 1240 411 409 398 411 398 397 558 781 687 558 687 730 1230 1229 1250 1230 1250 1130 857 851 881 857 881 880 725 723 875 725 875 874 791 792 820 791 820 822 603 601 873 603 873 872 677 675 668 677 668 666 930 932 969 930 969 968 869 871 870 869 870 868 913 532 530 913 530 912 833 821 818 833 818 829 775 773 756 775 756 754 1163 1145 1146 1163 1146 1165 415 413 395 415 395 392 893 370 895 405 454 456 405 456 403 842 840 886 842 886 885 894 897 373 422 436 438 422 438 420 898 899 369 899 900 369 369 900 896 1043 1080 1079 1043 1079 1041 998 996 872 998 872 873 659 661 718 659 718 720 905 906 871 481 485 878 481 878 877 839 831 915 839 915 890 897 898 369 897 369 373 493 495 600 493 600 602 527 911 528 347 1209 1208 347 1208 345 419 440 442 419 442 416 846 844 884 846 884 883 889 839 890 892 894 893 892 893 891 604 603 872 604 872 870 916 812 917 424 421 383 424 383 381 810 807 918 414 444 446 414 446 412 914 556 534 800 786 784 800 784 802 642 733 742 642 742 860 544 546 559 544 559 561 1160 1162 1182 1160 1182 1181 1157 1160 1181 1157 1181 1180 481 877 483 725 874 727 644 878 646 855 879 858 738 875 740 857 880 853 907 871 906 916 829 812 829 814 812 816 829 818 329 297 1194 329 1194 1193 833 823 821 814 829 816 827 833 825 823 833 827 1123 1124 1243 1123 1243 1242 378 380 480 378 480 482 337 339 1204 337 1204 1203 1170 298 331 1170 331 316 583 581 567 1147 1148 1222 1147 1222 1221 416 442 444 416 444 414 565 575 569 1233 1232 1132 1233 1132 1133 579 571 573 914 805 781 650 653 726 650 726 729 516 514 507 516 507 511 948 978 977 948 977 946 1162 1164 1183 1162 1183 1182 644 858 879 644 879 878 545 549 542 545 542 547 745 751 749 745 749 746 309 1174 1202 309 1202 1201 688 742 690 742 697 690 688 860 742 486 483 877 486 877 876 409 406 400 409 400 398 307 1201 365 307 365 305 905 871 904 905 904 903 1151 1152 1226 1151 1226 1225 589 728 591 728 593 591 597 728 599 595 728 597 583 728 585 728 587 585 587 728 589 696 742 699 317 330 318 317 318 314 1177 1175 1216 1177 1216 1215 740 703 701 711 740 713 740 715 713 709 740 705 740 707 705 707 740 711 703 740 709 719 740 721 715 740 716 740 719 716 693 742 696 697 742 693 640 614 733 640 733 642 1178 337 1203 1178 1203 1176 345 1208 1207 345 1207 343 486 876 610 876 612 610 632 630 627 632 627 618 488 609 428 428 648 426 648 430 426 439 648 443 581 577 563 581 563 567 723 721 740 723 740 875 646 445 447 464 646 466 646 473 466 471 646 474 646 476 474 476 646 478 432 648 441 648 435 441 437 648 439 435 648 437 430 648 432 459 646 455 646 457 455 460 646 462 646 464 462 457 646 460 453 646 451 646 459 451 445 646 449 646 453 449 469 646 471 593 728 595 473 646 469 753 746 749 491 498 496 491 496 492 524 501 498 524 498 491 778 775 754 521 523 503 521 503 501 523 519 505 523 505 503 519 516 511 519 511 505 1231 1230 1130 1231 1130 1131 514 512 509 514 509 507 633 622 634 633 634 637 1176 1203 1202 1176 1202 1174 375 374 484 375 484 487 1170 1172 311 1170 311 313 417 415 392 417 392 389 327 1193 1192 327 1192 325 648 428 609 648 609 635 621 623 629 365 1201 1200 365 1200 363 778 754 751 778 751 745 962 985 984 962 984 960 494 492 496 601 599 728 601 728 873 743 732 735 743 735 736 524 521 501 410 448 450 410 450 408 914 781 558 914 558 556 844 842 885 844 885 884 771 769 765 771 765 761 964 921 965 964 965 963 831 839 834 831 834 832 620 623 621 620 621 622 302 304 305 302 305 303 696 699 698 696 698 695 921 922 919 921 919 920 560 567 562 560 562 561 926 924 923 926 923 925 821 823 822 821 822 820 816 817 815 816 815 814 395 397 396 395 396 394 934 932 931 934 931 933 966 967 911 966 911 910 938 936 935 938 935 937 312 299 298 312 298 313 977 978 897 977 897 894 944 942 941 944 941 943 785 783 782 785 782 784 786 787 785 786 785 784 971 972 917 971 917 918 732 743 742 732 742 733 954 952 951 954 951 953 969 970 914 969 914 913 587 589 588 587 588 586 735 732 733 735 733 734 338 340 341 338 341 339 757 756 758 757 758 759 503 505 504 503 504 502 388 387 389 388 389 390 533 532 534 533 534 535 761 765 762 761 762 760 463 462 464 463 464 465 967 968 912 967 912 911 685 682 681 685 681 684 320 322 323 320 323 321 956 954 953 956 953 955 637 634 635 637 635 636 958 956 955 958 955 957 546 545 547 546 547 548 769 771 770 769 770 768 974 975 890 974 890 915 973 974 915 973 915 916 346 348 349 346 349 347 406 409 408 406 408 407 398 399 396 398 396 397 932 930 929 932 929 931 675 672 670 675 670 668 1168 1170 1186 1168 1186 1185 1236 1135 1136 1236 1136 1237 1232 1231 1131 1232 1131 1132 954 981 980 954 980 952 952 980 979 952 979 950 950 979 978 950 978 948 945 941 939 945 939 947 1128 1129 1248 1128 1248 1247 798 788 786 798 786 800 974 942 975 940 942 974 940 974 973 938 940 973 938 973 972 936 938 972 936 972 971 1121 1123 1242 1121 1242 1241 729 731 685 729 685 650 909 910 606 909 606 604 928 930 968 928 968 967 926 928 967 926 967 966 924 926 966 924 966 965 319 321 1189 319 1189 1188 667 710 712 667 712 665 924 965 921 921 964 922 628 639 641 628 641 626 1148 1149 1223 1148 1223 1222 361 1199 1198 361 1198 359 495 497 598 495 598 600 382 384 477 382 477 479 807 805 914 807 914 918 1166 1168 1185 1166 1185 1184 626 641 643 626 643 624 425 434 436 425 436 422 551 540 538 551 538 555 863 865 864 863 864 862 1175 1173 1217 1175 1217 1216 1014 1015 1013 1014 1013 1012 1009 1007 1006 1009 1006 1008 1027 1025 1024 1027 1024 1026 1047 1045 1044 1047 1044 1046 1086 1085 1053 1086 1053 1119 1016 1017 1015 1016 1015 1014 1051 1049 1048 1051 1048 1050 1010 1011 1009 1010 1009 1008 1000 1001 999 1000 999 998 1042 1043 1041 1042 1041 1040 997 995 994 997 994 996 1024 1025 1023 1024 1023 1022 1029 1027 1026 1029 1026 1028 992 993 991 992 991 990 1039 1037 1036 1039 1036 1038 1020 1021 1019 1020 1019 1018 1049 1047 1046 1049 1046 1048 1040 1041 1039 1040 1039 1038 1005 1003 1002 1005 1002 1004 1044 1045 1043 1044 1043 1042 1019 1017 1016 1019 1016 1018 1037 1035 1034 1037 1034 1036 1013 1011 1010 1013 1010 1012 998 999 997 998 997 996 1003 1001 1000 1003 1000 1002 1007 1005 1004 1007 1004 1006 1033 1031 1030 1033 1030 1032 1022 1023 1021 1022 1021 1020 1034 1035 1033 1034 1033 1032 1030 1031 1029 1030 1029 1028 990 991 988 990 988 987 988 989 986 988 986 987 993 1055 1054 993 1054 991 1071 1070 1023 1071 1023 1025 1065 1064 1011 1065 1011 1013 1081 1080 1043 1081 1043 1045 1060 1059 1001 1060 1001 1003 1051 1084 1083 1051 1083 1049 1210 1213 1218 1210 1218 1219 1015 1066 1065 1015 1065 1013 1017 1067 1066 1017 1066 1015 1039 1078 1077 1039 1077 1037 1068 1067 1017 1068 1017 1019 1054 1052 988 1054 988 991 1033 1075 1074 1033 1074 1031 1064 1063 1009 1064 1009 1011 1070 1069 1021 1070 1021 1023 1074 1073 1029 1074 1029 1031 1063 1062 1007 1063 1007 1009 1058 1057 997 1058 997 999 1037 1077 1076 1037 1076 1035 1041 1079 1078 1041 1078 1039 1061 1060 1003 1061 1003 1005 1082 1081 1045 1082 1045 1047 1069 1068 1019 1069 1019 1021 1029 1073 1072 1029 1072 1027 1049 1083 1082 1049 1082 1047 995 1056 1055 995 1055 993 1059 1058 999 1059 999 1001 997 1057 1056 997 1056 995 1035 1076 1075 1035 1075 1033 1072 1071 1025 1072 1025 1027 1007 1062 1061 1007 1061 1005 1052 1053 989 1052 989 988 357 359 1197 357 1197 1196 1053 1052 1118 1053 1118 1119 1066 1067 1104 1066 1104 1105 1070 1071 1100 1070 1100 1101 1062 1063 1108 1062 1108 1109 1078 1079 1092 1078 1092 1093 1056 1057 1114 1056 1114 1115 1058 1059 1112 1058 1112 1113 1059 1060 1111 1059 1111 1112 1079 1080 1091 1079 1091 1092 1076 1077 1094 1076 1094 1095 1072 1073 1098 1072 1098 1099 1080 1081 1090 1080 1090 1091 1065 1066 1105 1065 1105 1106 1071 1072 1099 1071 1099 1100 1083 1084 1087 1083 1087 1088 1055 1056 1115 1055 1115 1116 1068 1069 1102 1068 1102 1103 1074 1075 1096 1074 1096 1097 1067 1068 1103 1067 1103 1104 1054 1055 1116 1054 1116 1117 1180 1181 1235 1180 1235 1236 1052 1054 1117 1052 1117 1118 1057 1058 1113 1057 1113 1114 1075 1076 1095 1075 1095 1096 1061 1062 1109 1061 1109 1110 1060 1061 1110 1060 1110 1111 1077 1078 1093 1077 1093 1094 1073 1074 1097 1073 1097 1098 1063 1064 1107 1063 1107 1108 1069 1070 1101 1069 1101 1102 1081 1082 1089 1081 1089 1090 1082 1083 1088 1082 1088 1089 1086 1087 1084 1086 1084 1085 910 911 527 910 527 606 863 1120 1050 863 1050 865 1028 1026 887 1028 887 888 1014 1012 880 1014 880 881 1046 1044 871 1046 871 869 1044 1042 904 1044 904 871 1022 1020 884 1022 884 885 1040 1038 896 1040 896 902 1004 1002 875 1004 875 876 1016 1014 881 1016 881 882 1034 1032 891 1034 891 893 1032 1030 889 1032 889 891 1000 998 873 1000 873 874 1026 1024 886 1026 886 887 1050 1048 867 1050 867 865 994 992 868 994 868 870 1020 1018 883 1020 883 884 1008 1006 877 1008 877 878 996 994 870 996 870 872 1030 1028 888 1030 888 889 1038 1036 895 1038 895 896 1012 1010 879 1012 879 880 1010 1008 878 1010 878 879 1018 1016 882 1018 882 883 1042 1040 902 1042 902 904 1024 1022 885 1024 885 886 1006 1004 876 1006 876 877 990 987 864 990 864 866 992 990 866 992 866 868 1002 1000 874 1002 874 875 1048 1046 869 1048 869 867 987 986 862 987 862 864 497 499 596 497 596 598 1036 1034 893 1036 893 895 922 964 985 922 985 962 989 1053 1085 989 1085 1120 986 989 1120 1051 1050 1120 1122 1154 1087 1122 1087 1086 1127 1126 1115 1127 1115 1114 1140 1139 1102 1140 1102 1101 1133 1132 1109 1133 1109 1108 1134 1133 1108 1134 1108 1107 1148 1147 1094 1148 1094 1093 1144 1143 1098 1144 1098 1097 1131 1130 1111 1131 1111 1110 1154 1153 1088 1154 1088 1087 1138 1137 1104 1138 1104 1103 1128 1127 1114 1128 1114 1113 1130 1129 1112 1130 1112 1111 1151 1150 1091 1151 1091 1090 1136 1135 1106 1136 1106 1105 1141 1140 1101 1141 1101 1100 1153 1152 1089 1153 1089 1088 1139 1138 1103 1139 1103 1102 1121 1122 1086 1121 1086 1119 1137 1136 1105 1137 1105 1104 1145 1144 1097 1145 1097 1096 1064 1065 1106 1064 1106 1107 1123 1121 1119 1123 1119 1118 1135 1134 1107 1135 1107 1106 1149 1148 1093 1149 1093 1092 1129 1128 1113 1129 1113 1112 1126 1125 1116 1126 1116 1115 1146 1145 1096 1146 1096 1095 1142 1141 1100 1142 1100 1099 1132 1131 1110 1132 1110 1109 1152 1151 1090 1152 1090 1089 1125 1124 1117 1125 1117 1116 1143 1142 1099 1143 1099 1098 1124 1123 1118 1124 1118 1117 1150 1149 1092 1150 1092 1091 920 919 923 728 727 874 728 874 873 947 939 937 947 937 949 683 679 664 683 664 662 951 935 933 951 933 953 1252 1291 1290 1252 1290 1253 762 838 841 762 841 760 957 929 927 957 927 959 740 701 699 740 699 742 961 925 923 961 923 919 945 943 941 1240 1241 1201 1240 1201 1202 1214 1212 1216 1214 1216 1217 1199 1200 1242 1199 1242 1243 1209 1210 1219 1209 1219 1220 1197 1198 1244 1197 1244 1245 1184 1185 1232 1184 1232 1233 1206 1207 1221 1206 1221 1222 1205 1206 1222 1205 1222 1223 1192 1193 1248 1192 1248 1249 1179 1180 1236 1179 1236 1237 1175 1177 1178 1170 1168 1167 1221 1165 1146 1221 1146 1147 1229 1228 1239 1229 1239 1250 635 609 614 635 614 640 555 538 536 555 536 553 1169 1167 1220 1169 1220 1219 1167 1165 1221 1167 1221 1220 949 937 935 949 935 951 1260 1261 1256 1260 1256 1257 349 1211 1210 349 1210 1209 673 704 706 673 706 671 1262 1265 1255 1262 1255 1254 1190 323 1191 781 860 688 781 688 687 1237 1136 1137 1237 1137 1238 327 329 1193 1178 1211 349 1178 349 334 1186 1170 316 1154 1122 1240 1154 1240 1226 299 312 300 299 300 296 1129 1130 1249 1129 1249 1248 893 894 373 893 373 370 1159 1143 1144 1159 1144 1161 488 486 610 488 610 609 1197 359 1198 1084 1051 1120 1084 1120 1085 339 341 1205 339 1205 1204 376 424 381 376 381 379 351 301 352 380 382 479 380 479 480 1264 1265 1262 1264 1262 1263 680 695 698 680 698 678 307 309 1201 773 777 758 773 758 756 298 1170 313 1156 1141 1142 1156 1142 1158 810 918 917 810 917 812 958 983 982 958 982 956 429 433 434 429 434 427 1161 1144 1145 1161 1145 1163 355 357 1196 355 1196 1195 330 328 320 330 320 318 1206 343 1207 903 904 902 903 902 901 363 1200 1199 363 1199 361 347 349 1209 418 417 389 418 389 387 337 1178 333 1178 334 333 676 700 702 676 702 674 769 766 763 769 763 765 1212 1214 1213 1227 1228 1189 1227 1189 1190 1203 1204 1224 1203 1224 1225 1276 1275 1286 1276 1286 1279 665 712 714 665 714 663 1186 1187 1230 1186 1230 1231 1166 1164 1163 1166 1163 1165 1196 1197 1245 1196 1245 1246 901 902 896 901 896 900 1252 1251 1258 1252 1258 1259 1181 1182 1234 1181 1234 1235 1191 1192 1249 1191 1249 1250 1225 1226 1203 1207 1208 1221 1156 1158 1157 1156 1157 1155 1200 1201 1241 1200 1241 1242 1162 1160 1159 1162 1159 1161 1198 1199 1243 1198 1243 1244 1208 1209 1220 1208 1220 1221 1188 1189 1228 1188 1228 1229 1194 1195 1246 1194 1246 1247 1193 1194 1247 1193 1247 1248 1176 1174 1171 1176 1171 1173 1182 1183 1233 1182 1233 1234 1237 1238 1179 1183 1184 1233 1215 1211 1178 1215 1178 1177 1215 1216 1212 1215 1212 1211 1160 1157 1158 1160 1158 1159 1213 1214 1217 1213 1217 1218 1164 1162 1161 1164 1161 1163 1185 1186 1231 1185 1231 1232 1168 1166 1165 1168 1165 1167 1172 1170 1167 1172 1167 1169 1174 1172 1169 1174 1169 1171 1204 1205 1223 1204 1223 1224 1178 1176 1173 1178 1173 1175 1250 1239 1191 1195 1196 1246 1155 1179 1238 1155 1238 1156 1190 1191 1239 1190 1239 1227 1155 1157 1180 1155 1180 1179 793 797 790 793 790 795 301 351 1194 301 1194 297 944 976 975 944 975 942 624 643 645 624 645 622 861 780 783 861 783 779 1127 1128 1247 1127 1247 1246 316 315 1187 316 1187 1186 1126 1127 1246 1126 1246 1245 1255 1257 1256 1255 1256 1254 1273 1272 1278 1273 1278 1285 1238 1137 1138 1238 1138 1156 907 908 870 907 870 871 413 411 397 413 397 395 679 677 666 679 666 664 384 386 475 384 475 477 661 663 717 661 717 718 315 319 1188 315 1188 1187 908 909 604 908 604 870 794 796 817 794 817 819 547 542 540 547 540 551 1249 1130 1250 652 651 656 652 656 654 1164 1166 1184 1164 1184 1183 325 1192 1191 325 1191 323 579 573 569 579 569 575 1235 1234 1134 1235 1134 1135 860 858 644 860 644 642 1156 1140 1141 1140 1156 1139 1139 1156 1138 1173 1171 1218 1173 1218 1217 848 846 883 848 883 882 685 689 692 685 692 694 1236 1235 1135 631 633 637 631 637 639 394 465 467 394 467 393 730 728 560 730 560 558 959 927 925 959 925 961 553 536 534 553 534 556 738 612 876 738 876 875 620 622 633 620 633 616 1239 1228 1227 1154 1226 1153 1226 1152 1153 1251 1252 1253 386 388 472 386 472 475 779 783 826 779 826 776 1226 1240 1202 1226 1202 1203 1258 1261 1282 1258 1282 1281 728 583 567 728 567 560 1277 1276 1281 1277 1281 1282 1274 1286 1275 1274 1275 1272 647 649 634 647 634 622 1269 1270 1264 1264 1263 1268 1264 1268 1269 1267 1268 1263 1267 1263 1266 1187 1188 1229 1187 1229 1230 965 966 910 965 910 909 818 821 820 818 820 819 396 463 465 396 465 394 1263 1262 1271 1263 1271 1266 1277 1278 1275 1277 1275 1276 401 458 461 401 461 399 1284 1277 1282 1284 1282 1283 759 843 845 759 845 757 341 343 1206 341 1206 1205 1281 1276 1279 1281 1279 1280 1275 1278 1272 490 493 602 490 602 605 407 452 454 407 454 405 1125 1126 1245 1125 1245 1244 747 744 745 747 745 746 863 862 986 863 986 1120 1266 1271 1289 1289 1288 1267 1289 1267 1266 1280 1293 1292 1280 1292 1259 425 422 421 425 421 424 408 450 452 408 452 407 890 892 891 890 891 889 1285 1269 1273 754 755 752 754 752 751 1286 1274 1287 1286 1287 1294 1280 1279 1295 1280 1295 1293 1147 1146 1095 1147 1095 1094 1279 1286 1294 1279 1294 1295 1287 1288 1294 1270 1269 1285 1270 1285 1284 1255 1270 1284 1255 1284 1283 792 797 793 792 793 794 983 984 905 983 905 903 743 736 739 743 739 741</p></triangles></mesh></geometry></library_geometries><library_visual_scenes><visual_scene id="Scene" name="Scene"><node id="mesh0-node" name="mesh0"><instance_geometry url="#mesh0"><bind_material><technique_common><instance_material symbol="mesh0-material0" target="#mesh0-material0" /></technique_common></bind_material></instance_geometry></node></visual_scene></library_visual_scenes><scene><instance_visual_scene url="#Scene" /></scene></COLLADA>